<mxfile host="app.diagrams.net" modified="2021-03-12T06:20:40.465Z" agent="5.0 (Windows NT 10.0; Win64; x64) AppleWebKit/537.36 (KHTML, like Gecko) Chrome/88.0.4324.190 Safari/537.36" etag="JQqJKedns95q1Re1mwhD" version="14.4.5" type="github">
  <diagram id="PDAn6-j3qrlHEVaI8i44" name="Page-1">
    <mxGraphModel dx="1422" dy="735" grid="1" gridSize="10" guides="1" tooltips="1" connect="1" arrows="1" fold="1" page="1" pageScale="1" pageWidth="1169" pageHeight="827" math="1" shadow="0">
      <root>
        <mxCell id="0" />
        <mxCell id="1" parent="0" />
        <mxCell id="djFlEE8lnEFdLwc92OZM-27" value="" style="shape=partialRectangle;whiteSpace=wrap;html=1;top=0;bottom=0;fillColor=none;strokeColor=#FF0000;" vertex="1" parent="1">
          <mxGeometry x="360" y="594" width="40" height="36" as="geometry" />
        </mxCell>
        <mxCell id="djFlEE8lnEFdLwc92OZM-1" value="" style="shape=image;verticalLabelPosition=bottom;labelBackgroundColor=#ffffff;verticalAlign=top;aspect=fixed;imageAspect=0;image=data:image/png,iVBORw0KGgoAAAANSUhEUgAAAq4AAAC8CAYAAAC5fiy/AAAgAElEQVR4Aey9BZhU17I9/v6/9+5972ruTa7mRnD3AQZ3dwjuTgIhEAgWAgFCcHf34O7u7q4DjLu7r/+3qucMTacHmekerfm+83X3mXNqV9Veu/Y6dbb8V3wioIf6QDGgGFAMKAYUA4oBxYBiILNj4L+8ohKhh/pAMaAYUAwoBhQDigHFgGIgs2PgvzyjEqGH+kAxoBhQDCgGFAOKAcWAYiCzY0CJqxJ3fXBRDCgGFAOKAcWAYkAxkCUwoMRVgZolgJrZnwBVP81SKAYUA4oBxYBiwP4YUOKqxFWJq2JAMaAYUAwoBhQDioEsgQElrgrULAFUfYq1/1Os+lh9rBhQDCgGFAOZHQNKXJW4KnFVDCgGFAOKAcWAYkAxkCUwoMRVgZolgJrZnwBVP81SKAYUA4oBxYBiwP4YUOKqxFWJq2JAMaAYUAwoBhQDioEsgQElrgrULAFUfYq1/1Os+lh9rBhQDCgGFAOZHQNKXJW4KnFVDCgGFAOKAcWAYkAxkCUwoMRVgZolgJrZnwBVP81SKAYUA4oBxYBiwP4YUOKqxFWJq2JAMaAYUAwoBhQDioEsgQElrgrULAFUfYq1/1Os+lh9rBhQDCgGFAOZHQNKXJW4KnFVDCgGFAOKAcWAYkAxkCUwoMRVgZolgJrZnwBVP81SKAYUA4oBxYBiwP4YUOKqxFWJq2JAMaAYUAwoBhQDioEsgQElrgrULAFUfYq1/1Os+lh9rBhQDCgGFAOZHQNKXJW4KnFVDCgGFAOKAcWAYkAxkCUwoMQ1g4DqFQ14Jx38ntmfcFQ/fQpXDCgGFAOKAcWAYiCjMaDENYOIq08M4BsH+MaajowGgpavwUgxoBhQDCgGFAOKgcyOASWu6URcfWIBHxLVOCAIwNqzT/Hd6jMYse48Zh+8B69YICAR8IsHvGI0A5vZG47qp8FdMaAYUAwoBhQD6Y8BJa7pQFy9Y01E1DU0Bm5hMfCNicPwtefh8M0aOA5egzY/bcV9d384+QbhmV+IadhAdPqDQRug+lwxoBhQDCgGFAOKgcyMASWudiau/vHAreduaNehMxo3aoKmTZujWdOmqNa0C+qP243yrQageEkH1KlbH3Xr1kflSlWwestOBEOzrpm54ahuGtgVA4oBxYBiQDGQ/hhQ4mpn4koCevDMRRQtVBQTF6zE3PU7MPSHn5Avf1E0+HEHilRuiu69+mDN/tNYve8k6jZsitHjJiJUiatOWLMzNjXgpn/AVZ+rzxUDigHFQNowoMTVzuSA41kPnbmIqtVq4qJzEB5FANtOXkGhYg6oP3Y7CldqilETJuN+KHAvBOjabyDGTpiEECWuSlztjE0NnmkLnuo/9Z9iQDGgGEh/DChxtTM5EOJ69hKqVKmO4w/ccMMnGusPnHpFXCs3w7AxE3DdOwrXvCLQqddXGPvTZCWudq4XDTbpH2zU5+pzxYBiQDGgGEgrBpS42pkgKXHVRprWRqr3K4YUA4oBxYBiQDFgwoASVyWu+krezhjQYKMdjmJAMaAYUAwoBmyDASWudiYtmnG1DVC1wasfFQOKAcWAYkAxoBhQ4qrEVTOudsaABloNtIoBxYBiQDGgGLANBpS42pm0aMbVNkDVBq9+VAwoBhQDigHFgGJAiasSV8242hkDGmg10CoGFAOKAcWAYsA2GFDiamfSktkzrt4xgFf0r3fp4nke2tBMDY0+4ta98km/WPgsJT+a+4/3WvO1+TXWvvsklWvtf3rONoFQ/ah+VAwoBhQDWQMDSlxzMHElifKNA/ziSaheAZbn/RIAEqac0pBpMx8yUiLrvvHAi8BweEYmiG/oH3Pf+MQBXm8h+u9Cbs1l8rtHZAJeBkVKPVn+T3+/wqz6Qn2hGFAMKAZyBgaUuOZQ4kridcfZE63btMePP0+Bf4IpG0gC5hIajZ59vkT/gd/CIyI+mcyR3FkjdsZ5fpoHDmvnLa8xMpfGedOnSY61+82vNyeKKZHClM4bsqkvSbtbeByOX7mF54Hh8I55vfFz295D565gyqx5OHn1Dpo0aY69J87JtryUT3L59eDvsPv4GQQmvq479eU1zNaOHDMeG3bsQ3DSNZa6GT4wfEj7fGMTZQvgY5dugHoY/9PP1+tI/aH+UAwoBhQDOQMDSlxzKHENAHD5oRNyf/oZihQshIce/vBPhOzYdfDsZXz05z+japVqcI+Il8wrs5GBMGVnSaBIsjwiE+WcZCpjIcSK2VueJzHmdcza8pOZXX7ntQwuHlGJUh714G/K5nX85G/K4ba3JNI8L3KjEsHr+ZufAYkmeeZ6mYhkotzH+1kuy6RtRplGOYaO/HQOjkL1ajXEJ/y/EQBJOL1j4tC1e08cOHMJ+05dwB9+8xvUrFELLiERQlRJXCtXrIRlGzaLziyLMqi76CAZbWD30dO4cPexPCQY52mHYTP1NOz0jE4UGREAVm7aji7desIvNsHqg4Ohq37mjKCt9az1rBhQDORkDChxzcnE9cEzIac1qtXAil+2IByQLOKosRNQ0bESWrRqA7ewWDnHjN+XA75B5249sXzDFiGmgfHAuTsP8e2wkejeqx/GTZqGp76BCIoDHnj4SKawa88+GPPTJLwMDMWlB8+wYMVaIcNB8cDuY6exfudeIbQrN23D+h170P+bIbj21BkuweEYM2ESOnXtCerzzC8ILG/Drv1Ys3UXho/+EX2+HIBT1+9gyZpf0KFTN8xZshLeMQnwiwPcwqIxZfZ8dO7WC4OGjsDtF24ITQB2HjmJ1Zt3YsKUGejUpbuQQpLHuUtXIV+u3Ph68FA4+YeCQwMYGEhAdx87g+YtWsn3zfsOo3r1mmjatIXYFwVTxrV2rTpYtWkbYgDcfumO70aNAW2fPGsuXMOi4R8HbNixF6eu3xUivXLjVslq9+s/EPQtyS/1vXj/qdhJ0jt/2WocvXAVfpGxaNy4qWR5zUl1Tg5cart23IoBxYBiIGdiQIlrDiauF+89Qd069TByzDj07NNPsoMvgyPxReu2QhabNG0On7hEXH34DFUqV8WMBYuxaecuIW5b9h+Bd2QMGjduhp+mzcKlm7fRtn1HIYkkcxxq8O2wUTh76Qrad+yMcZOng6SPBI9kmNeQkHbv1Vcyjg0aNEK5Mg6YNHM2nvgEoVe//ujesw8OHD6Krt17YcCgIQgD0LlLDxQvUhSrNm7Gt8NHIe/nuTBi9I9Yu3kLypZxwNYDR4U8fjfqB7Ro2Rp7Dx3GN0NHoF2HTgiOTcDw739E3s9yYc7iFVi2fiNKFiuOIxevYdfR0yhRpBgmzZwjmVRjfC/JPO0Y/N1IxANYv2MvGjVqitM37qJMqdI4e+u+EFratW7bbvhHxgip/WbIcBw6fhLNW3yBoSO+R0gi0LJlayxevQG7jpxA/foNcOTsecxcuBT16jWAU0A4WrZqg2Hfj0UsgFvP3VCyWAkcOncVcQCGDP9eDvpAg3XODNZa71rvigHFgGIgEUpcczhxJSHdd+o8GjRojKe+Idhz4iw6demGddt3C6Fihm/UjxOEfD7zC4RzYDC+HzcRrdu2h3d0PI5fviHDDK7df4AevfuibftOkqFlRrLvV1/j+oNHeOIdiCeePtiwc5+QOhLXSEAytF8NHCyv/evXa4g5i5eDfyeu3kJ5h3JCDp39AmR8aTmHsjImt0evfiAp5R/Jo0OZMnjqSy2BLt17YvKs+XgZEI7yZctjx5ET4P0cEuFYrjxOXLuLMT9NRqfO3YTcRgNo37GLkFhmXatXrYGrj18IEWVw4LADvron4WQ2lH8krjWq15Ts9Nifp6BFyy/gG5sgviJp3nH4FGrVrC1DFEh0rzx+gQqOFXDrhbuQ9NWbd2DFxm2oUN4Re44dlzG115++lGEAzCTzXg4jIMFt3ryVlE/yPGvhMiHBHENrPrZXg5h2ZIoBxYBiQDGQkzCgxDWHE9cK5SvgjosXevX9Cqs2bcfo8T9j2txF2H38NOrUqSevtflKvnLFyjJUoFffAejZ+0tMmDwNHqERGDtxshCsIcNHCbHq3LWHkNK7Lh74auAg1KpdT0jdvhNnJOParHnL5IwrX9d/9fVgGX/apEkzbNp7SMjhpj2HUChffvT9aiB69hsgnyTB91y80KffAMxYsESykEcuXBMdn/uHgWNBmaGl7jdfuKNw/gIgye315dfo23+g/O/y/Sf4YcIkIb7MXHIsarcefTB70XLJYlatXBVnbt5PHnPKrCvHxTKrPG/56teIK4cjuIdFSgZ53rLVQmC3HTyGBcvXCHmnPj7xgGtYDKpUroLjl29JFnr+8jXin1mLlqFxk+aSyf5+3E9wDwnDM99gVKtaHadvPhAfUy/qGQpgwYo1aNCwkYybJaHOSUFKbdVOWTGgGFAMKAYMDChxzeHEtXy58njsHYTVW3aCQwP4GpxjTLcdOIratetK9pGvqXv27ifkkITs6MVr2HnoKNbt2CuZTOdgngUmTpsl2UzP6DgsWbtBiCGJ1+zFy2XiE8fGNmrURDKsvJ6EmKSS2U4SV2ZkEwCZBMWM6SPPADAr+sw3BAtXrcPLoAghdNPnLU4irldRq1Yd+T816NajN6bOWSAZWIfSZXDu1kO5nxPMFq1ej8fe/hg5djyGjhwtZJDEtWv33pJx5YQykvPrT5xNGdfIRMlscrWF1m3aYdrcha8RV8/IRPEHVxKgriWKFZcxu5y8RfLpHsEX/MCZWw9Q0bEi7rl6C3leuGo99hw+ggt3n8jQg2tPXqJU8RJYvWWXXM/xuBwa0axZS9xwckVAgom4MuP7xRdtRTfzpcuMhqyfGtQVA4oBxYBiICdgQIlrDiWunMl+7vZDFMpfADefu+F5QBg++/hjGfPK1/irt+wQQuYTm4hL958I8ZwwdQaWrFotGUSO5+QrfYfSDli6fiMWrlwjhI0rEVx/5irEq2uP3tiyfYcQVC4Xde2xE8qWdsD4KTMwbe4CFMpfEP0GmIgrJ4jxNTrL9oqMQY9efWXy1IaNm9C+Uxd5ze4fHYe27Tph4rTZSQT3Iso5lMNTn2C5j0t7jR43UQjhsFFj0LR5C6z7ZSP6DfgGzZq1gndoOAYNGY7+3wyWTKY/gC9at8eUWfMREA95pT/w22FwDg6TzCYDAF/TcwwwJ22RVK/atBMOpcqAxJUTqJgN5Vjb//qv/8LG3QcQGpcoww86d+uBlWvWSkaYk9Z4XYvmrWQIwOI162UoxIq162SMKzPb5++YSDazyP/66CPJMnPIAIcF8JPlc0ww5eSEwKQ2agesGFAMKAYUA9YwoMQ1hxJXEtLHXoFYtn4TnvmFyhJNa7buxIEzFxESB1x+5CRZWGYrOYL03O0HQpxI0jbvPSRZUo7/JFn75tthmLFwKS7cfSQZzwv3HuOJT4CMYR04dLhkK538QkQOx9CShDGDuPPoCSmPunDs6JVHz+EXa1oKi4v9z5i3GIO+Gyn3M9tKcsnX8aeu3UFQbCLuungJ2XUJiUZAbKL87+il6wiO4yv+BCxatR6Dho3E+MnT8cDdFyEJwP5TF7D/9AUph+VuO3DMNNM/Hth17LRpZQSf4GTiGpQIWd+1Qf1GstLBjWcvZUgFGxMzn/QBM9Z89X/10QuExANPfYMweeZcDBwyDEvXbpSxslyWa8u+w/KwwGW8uIoCJ41xYtnJa7eTl/ZyCY2RLDaHS5Ckkhy7hkfJ2ODDF64mLydmrTHrOQ3yigHFgGJAMZDdMaDENYcSV74a5xhOZhSNMZN8rU+S6p60Dit/swFwnCcztCRS/D8zgJ5RpoPfuf4oP41rZDeuBEhWM/kc13dNWl6KMnhQHu+lLiyL66nyOw/K4Dn+n5/8zfMsh0MLqKNxjbGmrKED/0fbjPtZDmXzPOUZZTJrasijbOpk+IO/aTvJaVACZHzv3CWrZDUEXmMEBtE1HnLeKINk1rCNn8basiyLwxOor/F/nqM+3tHAC/8ALFi5Vpa+cg017ZbF/zMT3eerr+Efb9LHKFs/tYNSDCgGFAOKgZyGASWuOZS4pgboJFw8LO+1ds64xtr/5JwVOcY95p/W7jf//9u+p/V+yudM/ssPnmHi9Fnwioq36gNrerytbP7fuIa7aS1dt0lWLNh74qyQaO665ROTgMmz5uHsrQfJk8aslZWWc9SBk82MgyQ6LfL0Xu1IFQOKAcWAYsBeGFDiqsRVScpbMMBMsbEhATcKsFdj5LAMZoGZlTXKMDK/RvnGeVt9MqPsGh6PR36ReORvOlzCSM416NrKxypHsaQYUAwoBmyHASWubyEtaQUbXwMfOnsJVapUx/EHbrjhE431B06hUDEH1B+7HYUrN8OwMRNw3TsK17wi0KnXVxj70+Sk1/G2q+i02qH3m1YZsKcfmPnkFrOWZaRl3VYOpzCGgljK5W+O4T3x2AetJ+1Guyl70XbyHhy+54HAhF/rYe1+PadtVDGgGFAMKAbSEwNKXJW4/ooopScAtSz7BTwSYU5qYwaXY42t+Zrjeg/d80DV7zag5oiNqD78F+y+4SKE1tr1es5+9aW+Vd8qBhQDioG3Y0CJqxJXq4RGG8/bG09m9hEniHGZMG6l2/vLAbjr4ikTzyyHHJC4Hr7viVojN6He6C2o8/1m7L3pqsTVznEhM2NHdcvabV/rT+svu2NAiaudOygdKqBBJCOCiHdMIjwjYjB1znzk+uRT5MuVBzPmL4JbWKSstmAMH1DiqvjMCHxqmYo7xYBiILUYUOKahYirLL0UZ1o+ia9+9VAfvAkDJKXcv+uxdyC+HTYKn/37Y9SoURNb9x8S7PD/Sly180ht56H3KXYUA4qBjMCAEtcsRFx9YhLx0NNfFrG/cO8J9FAfvAsGbji54I6zGxauXItSJUri47//U7afPX/7gQwf0KEC2vlkROejZSruFAOKgdRgQIlrFiKuEQCmzV2Ef/71r8ifJ68e6oN3xkCBvPlke1zHco7I/eln+NNv/xe5/vMp9h89jjPPg1BrlI5xTU0A1Xu041UMKAYUA+mLASWuWYi4+sdx69WHst/9yo3boIf64G0YWLFxG9Zs2SnDA+YuWYnq1Wrgwz/+EY7lK2D+ilXwDAzCsUc+OjnLznFAO7b07djU3+pvxUD2xYASVzt3WLacnMWF8LmtKLcL5VageqgP3oaBeADM1G/eux+VK1ZGvly58f2PE/DIy1+GCXD7Wi6HpasKZN8grx241q1iQDGQnTCgxDULEdfsBDy1xb6BlDtf+cQm4siFq2jSpBk+/NOf0bpte5y9eUdWFQhIWtdVJ2fZtx4U5+pfxYBiQDFgWwwocVXiquu42hkDGRG0mJl/6hsk41rLlnHA5n0HEJhoWkWAGxMYOilxtW1ANfyqn+pXxYBiQDFgHwwocbUzabHlUAFtBPZpBNnRr8y4ukfE49T1u3jmF/La2q3m9ipxVUyZ40G/Kx4UA4qBzI4BJa5KXJOzb5kdrKrfewbUaNM6t9xFKyXfKXF9T5/aOV6kVE96XutJMaAYUAyYMKDE1c4dkWZcNdhk5mCjxFXxmZnxqbopPhUDigFLDChxVeKaYjbOEiz6O/sFECWu2a9OtZ1qnSoGFAPZGQNKXJW4KnG1MwYycwBR4qodXGbGp+qm+FQMKAYsMaDE1c6kRYcKaKOzbHSWvznL3zcOskYvVwNIz4NrvB5/4ofa329D/TE7UPeH7Th4z0vWeE1PPaSseMAnNuXxuJZ+09/athQDigHFQM7DgBJXJa6acbUzBlIKrN6xrzZQcAmNwWPvQDzyDMAjr/Q7nAMDsf3iI1QbvAI1h65CjSErsfH0PbwMCExXPWj3E59geEYmygoIfOAzX7YrJR/q+ZzXaWmda50rBnI2BpS42pm0aMY1ZzewlAJsIExZ1u2HjqHfgG/QsFET1KxRCzWq1UCN6ul31KxRE5UqVUXREuWSj4oVq4Dn01MP2l2rZh00a94Sw74fi1PX78jOcMzEcse4lPyo59U3igHFgGIgZ2FAiaudO0US14NnLqJqtZq46BKMx5HAtlNXUKiYA+qP3Y5ClZpi9MSpcv5RBND9y0EYM2GSdNraGLNnY+SWvTedXspOVkULFkLj+vXxVd+++O7bbzF86FAMG5KexxCMGDoUo0cMx+gRw+RzxHffYdiQIemqB+0eOngwenfvjlrVqoF++XbYSLiGRYEk3yMye2JB27jWq2JAMaAYeD8MKHFNB+J6+PwV5M+TD30GDcfgH35Ch649kTd/UTQctxMlarRCtYqO6NijH9p374sC+Qrix5+nguRGwfx+YM7s/mLmkPV69tZdlHUoizrVq2PalClYungxlixahEULFuT4w/DFjz/8gNLFiqNZi1Z46uOPgERtD5kd36pf9opXWp9an5kVA0pc7UxcOemGYxZH/TgB/foPRP+Bg/DNoEFo2nsE6o7Zjqr9pqFaq774YfwkjJs4GT9NmYnzdx/DL0476szaaFKrV0AC8NDDG5UqVkbzxo2FsC6cPx9zZ8/Ww8IHixcuxLw5c1ChjAM6dukO39hEeMdom0gt9vQ+JSGKAcVAdsGAElc7E1cChTOlOWSArzz5GQVg/PYbqDJsA2qN3oa+S87AHwBneDMj56/j+rJdttkrBuDSU19/OwyVypUDidmCefOUsFoQVnMSzwz09KlTUSR/AazavEPfQqRDrMouHZvaoSRNMZB9MaDENZ06A86Q5sGsUVAiMGbjJVQdtgE1R25Ez7mH4RIeb1oKKFqzStkx4PBV97UnzihdoiRGjxwhxNWcpOl361nnpUsWo0uHDjJ5zTMyVpfLSqd4lR3boNqUfYmM1m3OqlslruncEXhFJyIwgcT14uvENSwOPvoqNNtlWo2AGg5gwcp1cHRwwIK5c+U1uJJV62TV3C/MSv88YQLKlCiF0zfuyxsLw6f6mbM6K61vrW/FgGKAGFDiqsQ125LFzBLkmGkPA/DdqDFoUKsWli1ZokME3jBEwJy4cpwryWvZUqWwbsdeHS6QzvEqs7Qh1UMJi2JAMWBgQIlrOncEmnHNeY2PxJVjm/sPGiKTspS4vj3Tak5eOR64UvnyWLR6gy4Tl87xyugo9DPnxS2tc63zzIoBJa7p3BEocc15wcAgrgOUuKYq08xJWpXLOypxTedYlVk7LdUr58VQrXOtc3MMKHFN585AiWvOa4BKXN8vw2qebeV3Ja45r82Yd1L6XetfMaAYMMeAElclrjrG1c4YUOKqxNU86Op37YQVA4oBxUDqMaDE1c6kxRKcmnFNPVgtfZlVfitxVeKaVbCqeua8+KR1rnWe1TCgxFWJq2Zc7YwBJa5KXLNax6D6KplRDCgGMisGlLjambRYVrxmXHNeMFDiqsTVMg7o75wXB7TOtc4VA7bBgBJXJa6acbUzBpS4KnHVDss2HZb6Uf2oGFAMKHG1M2mxbGSacc15jU6JqxJXyzigv3NeHNA61zpXDNgGA0pclbhqxtXOGFDiqsRVOyzbdFjqR/WjYkAxoMTVzqTFspFpxjXnNTolrkpcLeOA/s55cUDrXOtcMWAbDChxVeKqGVc7Y0CJqxJX7bBs02GpH9WPigHFgBJXO5MWy0amGdec1+iUuCpxtYwD+jvnxQGtc61zxYBtMKDEVYmrZlztjAElrkpctcOyTYelflQ/KgYUA0pc7UxaLBuZZlxzXqNT4qrE1TIO6O+cFwe0zrXOFQO2wYASVyWumnG1MwaUuCpx1Q7LNh2W+lH9qBhQDChxtTNpsWxkmnHNeY1OiasSV8s4oL9zXhzQOtc6VwzYBgNKXJW4asbVzhhQ4qrEVTss23RY6kf1o2JAMaDE1c6kxbKRacY15zU6Ja5KXC3jgP7OeXFA61zrXDFgGwwocVXiqhlXO2NAiasSV+2wbNNhqR/Vj4oBxYASVzuTFstGphnXnNfolLgqcbWMA/o758UBrXOtc8WAbTCgxFWJq2Zc7YwBJa5KXLXDsk2HpX5UPyoGFANKXO1MWiwbmWZcc16jU+KqxNUyDujvnBcHtM61zhUDtsGAElclrppxtTMGlLgqcdUOyzYdlvpR/agYUAwocbUzabFsZJpxzXmNTomrElfLOKC/c14c0DrXOlcM2AYDSlyVuGrG1c4YUOKqxFU7LNt0WOpH9aNiQDGgxNXOpMWykWnGNec1OiWuSlwt44D+znlxQOtc61wxYBsMKHFV4qoZVztjQImrElftsGzTYakf1Y+KAcWAElc7kxbLRqYZ15zX6JS4KnG1jAP6O+fFAa1zrXPFgG0woMRViatmXO2MgbQS13lz5mD+3LmvHXNnp40MZtT9tMU43lWHRQsWoHJ5RyxavQEhgOLVznjVztU2nav6Uf2oGLAPBpS4pnMnoBlX+wA5MweI1BBXEtXFCxdi6eLFQlhnTp+O6VOnYsa0aZgzaxaWLFokx4J58/CuBDAjriNJXTh/vthBnWkX9eAnf9M+/p/XpaSfEtec12Yyc3tW3RSPioGMxYASVyWumsGyMwYM4tr/myFo3rgxli1ZkiJJI4EjoePnsKFD0bplS9SsWhWODmVRtlRplCtdBlUrVkKThg3Rv18/IbO8PrMRWOpP4k1S+uOYMejRtavoXKt6dVSvUhW1qteQ3z26dpP/8zpeb43AGsR14ar1mnG1M1a1Q87YDln9r/5XDLwdA0pc07kj0Izr20GZ3RouiStfcQ8cMhxNGtRPkbgumD8fJGnfDBiAiuXKo1D+AihTsqQQvQZ16qFx/YZoWK8+alevgfIOZVGkQEGUKlYcndp3wKwZM4T4pZS1TM/zJNEkocOGDEWtatVFzxJFigr5JmmtWc1EXknGeb5IwUKoVa0Ghg8dKvdZknD6xNHBAcs3bFHims7xKru1RbUn58VfrfPsV+dKXNO5I1Dimv0a0bsExggAP02bheqVKlnNLJKczZw2HQ3r1UP+3HlQrVJltP2iNbp07MSZXZYAACAASURBVIyunTqjS8dO6Nyxo3zyN4+Obdujfu26KJy/gGRiR48aJa/e05OkWpZFO0iimzVujPx58qJC2fJo1by5kGtDb/NPku6WzZrDsWw5ub55kyaYPXOmEHjK5pACDpMoXbwE9hw/p8Q1nePVu2Bbr8mZMU3rXes9ozCgxDWdOwIlrjmzsQcD2HvyPEoWK45pU6a89mqfZG/q5MmoULYcihUqgtYtW6Fb5y7o3KEjOrZrn+JB0kcSyE9maAvmzYchgwdnGHkVOyZNQqXyjpJlJSGlfm+zg//ndbyeJLySYwXxB+Uxczt08GBUrFAJDz394J+gk7MyqrPQcnNm7NJ613rPbBhQ4qrEVce4pgMGfGIBj4g4NGjQCB3atMHypUtlnCtfi8+eOQOVHR2F1JKEMrv6JsJq+T/eQ6Jbo1o1Ia/fjxgh42Qts6H2/E07mBklgS5VtJjo/752GNeXKFpMyO/sGTOwYtkyVK1QEYO/G4VQXVFA22o6tNXM1kmrPkocFQOvY0CJazoHQs24vg7AnNQgSby2HTyOArnz4PuRI4W8Ll60CHw9zkwjCenbspOWpNX4bZBXZisdSpbCzGnTXsvq2pO0ckIVs6ON6jdA0YKFJAOcWjt4H20pUqAQWjZthr69eqFMydK49dwVAZptVeKazvE6J8UntTXn9k1Zre6VuKZzIFTimnODA+ue5HXC1JnI/3kujB09WghsgTx50aJpM3ThuNU3DA142/86te8oxLdIwYJo17p1umVduarB4G++kbG5rVu0fO+MsaVdzLxyuAQJftFChbF1/xHNtqZznMpqHZnqm3PjqtZ9zqt7Ja7p3CEocc15jcw8sHLIQEAiMHH6HJlwVLxwYVSuUBFdO3dJE2k1yB9JHzOfxQoXkXGiXHqL40TtdZC0MttapUJFOThW1dAlLZ8c+lC+jAOaNm2OQAD0m7kf9XvObkda/1r/ioGciwElrkpclRCkMwZIwrjKwMbdB5Hn08/llXhqX61bkkO+ZudRqngJIX7VK1VGlQoV7HZwTVnK5xCBNq2+kLItdUrNb/qjVfMWKFa4KE5du4MgHd+q7TSd26kSo5xLjLTuM3fdK3FN52CoGdfM3SDSK2CFAdiwaz+KFSqEDm3b2YzwkSQy68nJXjVq1MKCleswf/kazFu22i7H0rUb0Kp1O5QqVizNQwQsCS6zx4Xz5cfUOQt0qEA6x6n0agdajsZDxYBi4H0xoMQ1nTsEJa7aSNlIwwEM/2EcShQuYhfCV6d6DTRs0BhchovZXW6AYOuD43XjAfT56ms4liljFzsqODigR+9+knHlRg7vG+D0em1vigHFgGIge2FAiasNiat3DGQ8HsfkpXTwlWckgPHbb6DaqK2o9cN29Fl0Ej7xJmKR0n3GeZahjTBrN0JjC9je/fqjfOkykiG1zDam5Tdfszdp0BCO5R3xyCsAfvH2wQyHPLhHxqNJ0+aoWaVqmieXWdrMjGuNylXQpEkz+MYBiv2sjXuNW1p/igHFgC0woMTVRsTVKyYRzsFRuPTgGc7ffYwLKRwX7z3G9UdPMXDWFlToMxOVv5yFdmNW4cyth7h0/0mK91Hm5QfP4BoWA2ZtbVH5KiNj/EgCxoX0u/fsgwply9qFuDZr1Bjly5bDbWdP+Cfah7iSTL4MipS1aetUr2mXjCszx/XrN4R7RLxO0LJRrNJ2nzHtXv2uflcM2AYDSlxt1BlwzOK6bbuRL3celClVBmVKp3CUKgOH0g4oVqwkChcuLkfRoiXefE/pMihVohSKFiqCrQeO6baXNqqzjAoizLjyFX7frwaiXKlSdiGujes3QIXyFfDEJ8h+Gdc4wC08Do0bN0WtqtXsQlxrVq2KRo2bCmnVjKttgn5G4V7L1fpTDCgGbIEBJa42IkF8/T9v6Sp88u9PUL/pF6jbuMUbjwZNW6FhM9PB72+8vklL1GnUHHlz58WKDVt0ooqN6swWDSi1MjjudPT4n1GicGG7EL5a1apLptIjKsFumUoS8MBEoEOnrqhYtpzNCTiHClQsVw6du/aQoTc6xlU7vdS2N71PsaMYyD4YUOJqIxJEIrJwxVrkzZMfLTt0R/N2XWx3tO+KZm07o3Dholi9absSVxvVWUYGMk6U2rBjHwrly2/zVQW4Bmrp4sUxYNAQBCUC9iR8fNPww4RJ4Hq0JJqW41TT8psbMhQrUBDjp8yQtwz2tCMjsaBlZ58OVetS61IxYH8MKHG1EQlKJq6586FFu65o1qaT7Y62ndG0dUcULlREiauN6iujgwvHuN5380XZ0g5oVK++zUgf13Dl8lr5c+XG2m27QWJpT1tJwPeeOAfu/tX2i9Y2W9aLdnBdWMrdf/qiDo/JJri3JxZVtv0Jg/pYfZwZMKDE1UYdghJXbdDv06CZPSTp+2bocBQtUMBmr9m5hitn+FetUg3PA0Lha6cVBQxbOUHLLSwK9es1RBXHCja1o3J5RzRq1AQeETF2G+5g2KGf2n4VA4oBxUDWwIASVyWuds3IaSBIORDwNf6lB09RtFBhNKhTN82kj8tgtW/TFrk/+QTzV6xJyrbaN+PK+mVWd+XG7VJuu9atkdZdwHh/2y++QO5PPsWabbt1aIyNYpS2xZTbovpGfaMYyDoYUOJqo05BM65ZB/SZJkBFQ0jftLmL8Pm/P5ZX46kdJ8pX68y2Fi1QEF+0bgfvqNh0y1JyPVffmHi069AlKXvcKdVDBmgHfVAkf3506tIdfnGJ6WZHpsGFjWKS2qMxSTGgGMiOGFDiaqNOQomrBojUBAiSPr/YBPT5aqBkLDmukwT0fSY1kejxKF2sOCo4VsTt566y01Rq9EnNPR6RiVLeHWcPVHCsAIcSJcSG98288nraTjsqVayM+65esmpBanTSe7Q9KgYUA4qB7IkBJa5KXHWogI0wkNogyYlaHuFR6N1vAD7/+GM0rFdPCBzJKDOQKZFYEj2uINC6ZSsUyptXxrVyEwtuxZpaXVJ7n0dUopR78d4jVChfEcUKFkS71m3EjjfZQNuMbDGv53jfShUqy2YctINyU6uT3qe+UwwoBhQD2Q8DSlxt1DFqxjX7NY70CnjMWAYkQrY1nTxzDgoXKIjihQrJtq0d27c3kdhOnSWrSjLLrCQ/WzVvAccyDjIWtHuvvnjo7pUhpNXcTySbd166ok27jsj1ySeoVqlSMoGlzjxIuI3vtIWEtWrFSsj1n0/QrkNn3HV2y3A7zG3S79q2FQOKAcVA5sGAEtd3JK6cAU5yGp7CAU5Q+WUr8ubOhy869ULLDt3e8egu17Vo3xUpHVwXlv/jOq6b9xxkUSnqkZJ+KZ2nTZx5TvJkrWFy9jvJyJtsT0n2285TJneQslYuz1Enbldqj7KpG+XyVf2bbOfEI3uUT5lBzCgm+Z2ZRc7QZ3nn79zHl18PQoXyjijv4IAqFSqiTs1aqF+nHurVqoPqlaugfBkHVHSsgG49++DQ2cuIAxD/jrgw7OFOVEb5r9VBZCL4v9TangAgCsCmvQfRslVrlC1dBpXKO6J+nbpo1rgJWjZrjsb166NKxYooUagwCuTKg9q162L5hs3wiYNsNhBoR7/TLq8YwNMK5ukPYsLAx9sw/L7/p+/5kGLV70mYJy6MOnpf+W+6njLflI2nTsSgPcqmXpTrx7cLVvxu4O9tcfZN9r3pfyybso1yLD+pk1+8fW2nb99ke3aMswaW2K5Tsp19TGpjzZvq3MCceZy1Vu8Bdmxv1ME7hT6G/rAWZ+kzxr+U/GVpQ078rcT1LcSVjYrHkrUbMeKHcRjz02Srx8TJU9C+Q2fk/Tw3HB0ro7xjpXc6ypWviAoVq6J6rfpWjxq1G6BKtdooV64i8ufNJ7sI/TR5ilUdUtItpfNcOP6H8T/jhpOrdNRs4OYHAz2D+fzlqzFy7ASblGmuy4gx47B6y07pUMzLNb6zAZ++cQ8jfvjR5mXTdu5c9dgrMEXbGVSmzV2I73/8yeblDx/9I7bsOyIB27CXwYrfo+XRBFi5aRtKFCuB/Hnymo7ceZK/FytSFG3adsT4ydNFx3GTpr6zjqPHT8RPU2fieUD4a+UberADdQmNxs/T52D0uInvLNe8bsdPnoZp8xZg5JjxqFWrjknvXHmQ9/Ncklkt51AOXbv1wLjJ03Dg9AV5eCL5ZtnchW7bwWMYPnpsqso218Py+6gff8LUOQtlq1qWZdhsfLKjeewdKH6lnyzvT+tvYv7opetio1Gm+Sc78A0799nJ9gmYuWCpPAzygdG8XH5ne7vr7GWq8wmTbG77qLETcOHuYynHsmxDn+UbtoA+SqufLe8nDhev3iCEwCjLXAfafvXxC1BHy3tt8XvEmPG49dzdar1TH5KnOUtX2qV8xs81SXE2JdtPXb8rbdUWtprLYP8yduIUPHD3SzHOsn+dPn8xRv1oe98P+34sNu05KA/S5vVtfOcD9oEzlzDMDrHGFGdn4bm/9TjLtu4cHIVJM+fie7M4S523HzqOkMSUH7RyIlk1t1mJ61uIK8kLMzCNmzTD7//7v/GPv/zV6vH3v/wV//nnP5M7Zr72fJfj84//g3y5cqFsmbKyGD0XpDc/2MEXL1IUvC7vZ5/jP//4J1hWSnq8z/m/ffABPvrTn4SY3nZywqUHz147rj1xwpmb9+FY3hF//t//s0mZ5vr98be/Fb9ef+qEK49+Xf5dJycJen/4zf/YvGza/uGf/oQNO/bCmu3Xnzjh+JVbKJy/IP7y+z/YvPw//M//oGPnrrjp5ITL1mx//hzfjfoBH//9H8ifOw/y5cot2CLx43eeIyb+9dHf3lu3D//4J7l3+6FjUr5lvd945oS9J84iz6ef469/+ON7yzev43//7e/I89nnoi915/e//+UvGPjtMDx88QJ3Xbxwz9Ub1568TMbePScndO3e643tzbyM9/n+we//gEL5C+DgmUugnZa233Jywi+79ktbJj7eR/bbrqXdxDw7SdpoWTbbAPHQ6os29rH9d79DiaLFcP72Q1x9/Ovy2d6Wrd8kdc728TZ73uf/tP2D//sdJs2YjTtWbKc+lx86oU6d+vjTb39r07KpJ+MX1za+eP+pVdupE0k9daSu72Pb266lvD/99n+xcOU60MeW9U7bL9x7In0Ay3+bvPf9/x9+8xuJs9cepxxnx0yYJD6yte0f/flP+NeHH2H15h0pxtljl2+gWOGi+OB3v7e57f/3//4f2rbvhPtW/M56eODkhIFDhuF3b+jb39ffxvV//eMfJc7yIZzt2rLeeW73sTPImyv3a3H2d//f/0PXHr0REBUFr2jrb0LNSVxO/K7E9R2Ja5t2HaQBsvO1+ZErt+wQlJxZMzJsefKazuc2ZapsXq5hy2efCykmMbZ6GNfZ6zOlcnneXmUact9UdkaXb+hor88MtN0g36xfktlf4c5eNhtyrZVpnPs8g3Fn6GivT8NOa592t91KXZvrYS+bDbnmZVn7blxnj09r5Zmfs0eZ5jLNy7L8bn6dPb5blmf52x5lmsu0LM/8t/l19vhuXpa17xZlcv1qxsSjF6/LW5GcSEzfZrMS10xAXHN98in++eFHQoz/9dFHMD943sjk2ovEffz3v6ecxf3rX0H97FU2s4YpZZAli/0PZrFfZRttrQczltbK57l//vVD5P70M/vYnis3Pvv3x1bL5hM7y//kX/+yT9lJZJE4S9H2Dz8yEUqLoGoL/5O0fvqvf1st27D9039/LJkIW5RnKYN1+s8PP7RaPv1BTAiZtoPt1OWTf/7LatmG7Z/x7YpZht1S/7T8pu3/+Kv1Nza0nRnytMh/273/+cc/UrSd9n/+n0/sVj7fgLEMawdt59uNt+mflv/Tt9bam+iTDnHWmt08R534Ji8ttr3x3s8+x7//ljFxlrHmXeIsr3ujDamMBYwjb42zFn0Miesn//o3Dp698sY5IG8jd9n5/0pc35G4Nm3WAn/8zW9eI5XmBDO13//+wQcy/q9T527y6rhDp64wP7p27SYTV/7+wV+sEtvUlsv7SIpJzurVbYDOXbu9Vi516NSlG9p16IR8ufNAyrcg1Wkpm/f+7c8foGjhIlIOX5ub283vXbp2Q7Wq1fG3P//Z5n43bG/SpHmKtrdt10Fe9TC4p9VWy/tpU+mSpaTslGyvUL6C+Mjy3rT+JnHhw1DzFq2s2961m7yuJsGyh+18BV++bHkQ25Z1zt88X6ZUaXxkh3pnJ82HJW7S0MlK+WwHTZs2FxJDP6XV16/d/6EJ85UrVbFqO3HA8vk63z62/0UeQjkWPyXMNWjYWOpcHqRt2d4/5EPSX1CzRi1p15b1Tn06duoqK2owJr7mNxvowfhVIG8+wVtKttepU1d05Kttm5ZP2z/4APXrN0zR9g6dughxoo9sWnZSnC1WuAg6drHex0icrVLNFONtbDsfEPkg2KhxU+uxpks3tGnbQXDJtmlr2z/6059RqnhJq+3NiDWMs/Zob2+Ls2zrnLzKh3jzOMvhWWVKlsa1R88QkKDjXK0RcCWubyGuxuQsjnvjpI5Zi5bZ9Jg2ZwHWbd8trwQ4OYeD9M0PTha58cxVJuDYuuyZC5fKuK47zp4yKca8XH7nAHbOhF2zdRe4u5Oty586ZwG2HjgmT5XWbOfg9Yv3nmLqnPk2L9uw/alPsFXbOYmBM8+Xrt2IGfMX27z8qbPnY9/JczIxzdLv/E3bT1y9DfrI1n6fOX8J5i9fgxdBEVbLp+2uYTEyJs8etk+eNQ9HLl6XyRop2X7g9EVMmW37euckEE60dA+PF9xZls8JiU99QzB36SrMXLDE5r5nfZ659UDq17JstgGWv/PIKbvYPm3eInDyEydcptTeHrj7Ct7ZPmyNO5bPCVDEtjXbeW7T3kNgTLR52XMXYf2OvVJuSrbfdHIDdbR12ZTHSZ73XLxTtJ2rp6zavMMu5RNzHGfJeJ6S7Rxja48YTxzNWbxcJsFyMqRlvUucjQaWrd+M6XbwPWPNnuNnU4w17F8ZZyfbIdbMYJxd8eY46xISjUWr1r/Wx0yZPQ8HzlwEtwS3Rtr0XCKUuL6FuBogYYNnw2PHYsvDmNlsEGTLT89o08x+e5Rt2MHlsCzLNX5zchoDnj3Kp0z61SjL2ieXz7FH2YbtXKbFWrk8R9sZWI1rbflJmxjEUyqb59mZ2dX22JTL5xIudrWdQTlpxQ5rPqBv7GE7ZdIu1q21cnmOkzFtWdfmslg+N5xIqWyet2esEaLwBtv5oGqury2/03aS5jfZbs9YQ9lvKptx0B6Yow8pl759U/n2tD0rxFl7+J4yaXtKsYbn3xRnSWy5vB8/U9sWGE9SqndrcZY6M/4Z3EM/fz1BTYnrOxJXBc+vwaM+UZ8oBhQDigHFQHbEAAnnI88A7D1xDh6RCfLwIes/K2fIcFKtxFVBmOEgzI5BT23SzlwxoBhQDGRdDPDtBEnrR3/6AI0aNcHRS1eFvEoGN0ozohmJbSWuSlyVuCoGFAOKAcWAYkAxYIYB75hEeEbGYtPufahYoaKsvvDlgG9kS2sOHeCwl4wkbzm5bCWuZkB9XyBw3IqMR0k0jWHhpAOCma8Y+J2fHDfF77yWWz3yepbD8UwcM8Pz/ORvnn8feRybQ9m8j0+BlMPvfFI05PGcMZaSsqkfx9Uk65e0zSj1SJW8BNN4QXN5bNQiLyEV+pnLi4NsASryYkzbRYq99KWZvbSVNtN22muM5xJ7LeUlbefJMY4cP0t5UjdvkWfUjTE+kTpxzBrrmN9Fnnldv6u8JOyYy6NOrCPWVbJ+FtixtDdZPzMsEnuv1bWZPGNcF++z9J+BHWtYtCov5tU4McqzhkVuXyjykvxNuwSLSVvLSltJwiJ9aa6fIY8yDGxblWdR16wf8eVb5IkvI03Yea2tvEle0thrw17aZuhnWTfEF/9P7NA26iTYMdPPwCLlUQdDnmXdmGP7feVZq2vK4zg/0S/RQr+kOGGObdEvBSzSbpGXFMdYh3y1KvYmxUWjrZjHRfO6NrfXqryk7UENbL9NHvUx6oOfb8R2jKktm2PRiIv0j1HX1uIs/29gxxzb1M9cnmA7CTuUTf3eJI9lijyOizbaSpwJPzxvC3nWsEh7LOMi/Wf40oizhn5GXJS6Torbhn7GPAVLeUZds92YyzOwyOuT5RlYtIyLSW2FeiTLM+sHeP5X8sz66F/FWQt5vJc6sG7nLVstKz9wQ6AZ8xbCNSRC/kc9WY4e6ecDJa6pBBwDBmcELly1DkcvXsOLwHDMWbJCdse47+oDzqa87+aLSw+cZJYqt3Y7cvEa5i1bJYGMszxX/LJVAtfarbtk+08Cf/Hq9Th8/ipeBEaIvIv3nuCBhy9mLlyC+67euProucx2prxjl2/KNdRlx5GTstc7G+Labbuxed9hGZezZM0vOHj2Ml4GR2Hu0pWy5eJDT3+RwV2Lrj95KdvtvQyOxIlrtzF78XJpgNzRg7vocOeO9Tv2yGxfjvNZum4jOOPbOcQkj7vwPPYKkFmRd509cdPJtAICZ6yfvnEXsxcth3tEvLxyWbpuk8jmCg0bdx8Q/VjGvlMXZIvRuctW4uytB+BMf84wvf3SA7deesjMeqeAMPkf5bmFxWL/qQuiC31GWZRJ/bjf/d6T5+AaFiv2cucvJ/9QmdV767mb7NTEWbacOX7+ziOxl/XIWZycbU4Zm/cekh21KHv5L1uw5/gZ2SJ03tKVOHX9jtQ1ZXC1h/tuPiKb24ReuPtE5LFuDp27DPreMzJB6nbd9j1iO+t819FTUg5nrp+4eku2/eOsY+4exVndtP2hhz8u3X8q8uhLYoJbVtKX2/YfBTHDulm5cRt2HD4hsucuW4Vjl27ANTRGZHBHroceflI3xOLlh89EHrd6JWY5m5Xyth88htVbdkgnuGrTdmw7cEwIL7F65MI1WWGAM+y565CBHe52deXhc5HHujl+6YasQkB51Idy2GFzx5wt+w4LUeMM20NnL0vdzF60DOfvPsYjrwBpK1zZ4uqTlyZ5/qE4ceUWFqxYI/rtJLZ/2SIyuEUw65ud7cJV6wWLrGu2vbN3Hsp2rZRN7Fx76iz4e+YXipNX72D+stUib9ex0yAWKYNthVuscpIe62vfyfOvsHPrPp74BGHWwmUgdljf/P7MNwSnbtzF3CUr4RERjz0nzmLxmg3wi4PMXGd7YTtctm6T/I/6cdtkbl9MbFMG28nN526yqsdT32CcvXVfdKU8tgfGFepHW4kdkhb6gO1S5K1Yg5PX7giOOWv9xlMXsXnGgiV44hMs2OZOUKwP7hK2cMVaqV9i2xw7xCLbE31NLDr5hUq8uvbEWdoKsUgfcNY5v7uFx+HQ+StYsGItPKMTsXX/UazZulPwt3rzduw4fFKuof7HL9+UbYVpL1cTIAaJc7YV7pI1fe4iiaFcaJ3ls+0JFjfvEHncppRbX9IGYpXXMS4ythJ7xCJX53joGSDyqd/LoEgpNxk7h08IBtmW127bhW0Hj0qdUR6xzbZKbF968FT04koWbIPXnzpLu2FbOXn1lswOp+3016pN20Q/1suW/UfgGZWARavXS5tn26M8xgLGGMYJxllih+fp31PX7sqqHqzHPcfOYMXGrSKPuGH9GP0A6809PA6sU8ZZiWNJcZErIFAe8URcEV8smzveMQZSxvqd+wQ/7B+IT65iwvP0n8TFgDCxkTjkdrQ8/9g7SP7Hts+4uO/UeekHeB9jrLSVWFNbYVwkBthnMC46BYSLTtefOQsWZ1GeVwDO3X4osdhZ4uwFLFn7i8Quwfa23YJz9iv0LeWxn2L7p++JbcYFxgfKY50zbsxdskLq7sDZS9Jn0kauSME45h8HWT3DiItcQeXYpZt4ERAubYx9KFd4oLwHHn6C7dlJ8g6fv4KFK01thXGL8VXixPbdOHrhmrTZMqXKgLsP1qlTD+u274JbWDQkO5tKLkHf6vF+PlDimkrQ8In/mV8IHMs5YtKMOUJguCYpl1w5de0OCubNJ8SNDb1wgYISELgncekSpSSbNGDQEFR0rAju6c412776erAE7soVK2PC1JkSPLkf/Zptu3Dm1n0UyJsXJ6/dxua9h2Xd18degdKRcKs86vL14O9kvVc+3XLLyO69+0nA5zaHP/48FY+8AlGiWHEhFOfvPJYtONmx7Dh0HHk//1z+zwBUpGAhCSrfDh+FWjVrC/lo266jbEHHDqRG9Zr4YcLP0pmVLFZCOlNuZcfFm0mGuPQI18nk3tTsPGg7AzT3necajnw65TqKnbr2EP1YBvcHJ7koWbyELD917elL5Pn0M+kIDp69hE//9S8J/gx41O9lUAS+//EnVK9eU3zWpVsPdOjcTeTVqV1PyuKDBOWxA731wh25/vMp9p++AG4v+Ok//y0dyYpftqBIoUJSj2N+moRqVWuIjG49+6Bd+04iu27d+hg6YjQYdCmP5JBklYtak0QwYNPeKw+dsHrzThQtVFg6wJ+nz0a9eg0k+Pfs8xVat2knwal+vYYY9N0IuEfEiTwG5ifeQeCi83yYYYdC20mq2TFSHn3507SZqFyxipDIPl8OkPX/GKwbNmgMYol+pX7T5iyEk3+YyNi454B0Gqwbdm7seCiPpHPyzLmoWKGSdHZfDhiEZs1aSIBu1Kgp+vYfKNnoUiVKYuL02ULUuasbSR47DW43y45l096DKFKoMO44e0m5bAvsPPsPGiJjwphJ4zq5PXr3kwe0smUcMO7nqXgeGC64WLlxOy7efyJthQ91Ww8clfq9/cJDOuuyDmVFHreHZT0wO9WsWUvBDrMrFcpXBPdCJ5lhO+CSOhfuPZbvJAdcVor4I+mcs3gFSpcsLVgcPGwkatSoJdkjtpX2HbtIRoVthXvaG9jhg8KVR89li9j9p85LfRfKV0Cws2D5GpQoWlxI33ejxqBKpaqSNSJuuP4v22HNvOCO0wAAIABJREFUGrUxbNQY0Y9lL1i5FsR24fwF5GGIpKBAnny4/sxFHkqIbZIjtgeuLUkb2U645iyJNX3Adkl76Uvubc97CxUoiF1HTkl74ULqfAAiyaVsktKxP02WdXOZ4e7eqy9atmwtJLZBw0YYNHS4kL1yZctJR377hbvot/3gcXkI4gLqJJ0kp9zdjA+sE6bOALeiJpkmFrkeMB+imjRphq8HDRVCQSyQSN518QZ9RoJ36vpdfP4fU1shFrnQOonc5JnzUM6hrLQ9wWLTFtJWmjdvKXHRJTRG6prLBJFUFsybHxv3HJQ2wrWGWeeUn+ezz4TYsFxuoU0sfj14qOhFcsk1M/v2/1p8UtGxEthGSdSIbcZt1jXlnb55Tx6+2G7uunoLeXIo4yB2se1yvCNJ9hdt2qFXny/hERmPShUrY9ykaXjuHybtg7GAZJVrdDLBsPvYaTlPgsgHVofSDlKPQ4Z/j/r1G4g84qZbz97SltkPcBtWksd8ufIIGeXDGDeD4UMxH84L5MmL609d5CGiTMky0u6HfT9GCBWJENfg7tS1u7Rrrh08csw48Sv7JhJttlvaSFlMRvA8tx0myeUa0+zf2B5q1qwtOnHdU8rkm8OqlatKXCQGGAMYF0nQ6Us+aFLHgvnyy8MuH+AYm/iAxvbKtbkZuwTbX7SVdli9Wk18M3S4YIrX8qGLvuf2zIwLfMgolC+/1DnJJNc6ZtwcO3Eq6CuSy249ekscY5aU/UD/b0xxkb5mXLzn6iPxhQ8H7Pso7+ztB+ADEvtuYmHClBnJbaVnny/RsGEjaddc3/jrwUMQDaBhw8b4+B//kHXd+f3WC1f467CBdCXfSlxTSVwZGBi8mNHikyFJHTMKfIInUSO54Sd/8zyv5XUkIQzyL4NDJftZrUp1yUi5hYZJxTPTxgyWyHP3lUwpO5/X5flI1oAEgLKpC7NAnAHJ7yS1zLrwu8jzD5PrGfSZkXglL0YIGTPEHhEJEkiT5fmFSCcg8ryDhKiKPE9/CZC0J1leeBzu0d7QGAm0DBDUnx3sK3mhyfIYcHhQ3iORFyr+eU2ea5K80BghWiIvKDLZl8w+8OmbMpgReiUvQEiwoR914Jqd1IkdIHUkcSNxpC+MuiHZo68MeQxiJv2syItIkhcSLXVM2SQczGo/8Q6U10cP3X3w8/Q5kiV+GRQiZPaVvBCRTXtJkqgrdSI5Zt2IPDPs0HZiR/SLTJQOgHUs8rwCJLPD75TH60zyfAR7Is8Ci6/k+YkMZoZelxcsmQ9i1ZBH/NE+t3ADi8SOCduGPGYvqAflMZNKnPOTWOR3yqOfqR/9LlgMjzNhOzQJi26+gh1im9dTnoFtyhBseweJPLY9c3kuoVF47BkgHf6pa7eF6D73D4V7EraT5SVh+9fy/IVIGdh5pZ+vYIckgnozC0Zc0d+in1+o1I3I8w4y1XV0ouCTD2QmeX5yD3FCGZRFPNKvlGdgkfKIbfqS8ohrZih5nu2bZMJcHu+1lCdYFGz7yH30kVE3rIvkuqY83yR5Hib9WJeGPFNbMbAdCYkTEsfCkuuGGb9keUlYpH4SFwPN4mKIKS4abYVxkd95rREXaaMJi6/iGH+TdFJ/XmfSzwzbrt7SZohFykvGorsfPAzseJnLM+Li69imPvQb26HEbanrV3GM2KGu9L95nKX91Jttk6SV1xhthXVjkmeKi1LXSXHxlbzQV/K8fx23abvIC4oU22gjceMSSiyasGPCoqGfubxXcVH6Ab9Q0dUkLyLZl+ZYNLBj6McHi+Q4mxS3iUvKI7ZpO/EicVaw4yPYJnZYDuMFsc22Qt+8FmeTsJ0sT+raFMdeyfOVuGiS5yt1naK8JCxSHuvIhB1T3HmFHcojFqlfkrxgs34g4BW22VYohw+N7hGxeODuJQ/83NWPD618GHYJjZQhT/SDHunnAyWuaQQcx/bwlSgzXsww8UnS+M5P/uZ5gprX8Xp+ZzaFDatu7fryKorjaHhe5CWt9/dGeUnrTRqy+cTJLA9lMLPCLKx8p35xpnFsIs9M19f0e1951JX2msuLeWUvZYu9Sbab60fdzPXj/wzb31UebTLspSzabNhrLu9XdZNUH2I768Oom9TKS6p36hIpY84SsXz9JvCBhJnacECe0qOSxk7xk9cxK8Cn94ikMVQxSWsFEgc8z0/jXn7ndTzP+3j/2+TxWt5vC3mGruby+D21+hnyDNsNXd9VnmE777P0Jddc5CtCvg0Y8cNY3HV2Fx9wDJ1R1+ZYJG7eFTtGW34Ttm0lz4gT74Ntc/3Yjgx72VZSI4/ZNMp4LU4wjqVWXlJb+ZU8s7godWO0ZcYJs9jwq7ZsRV5y3STFQsu6NuKOxNnYpLjzhrj9XvIMXS3jolk/8K7yGE8kbluJs6xn87o271dSspfykn2Z+Os+613lWW0rVuS9hh2z+rVH3E4Vtq1gh/3Ha9hOWtOY41u3Hzomb1W4u9fAb4fizks3iX8GnnivHunnAyWuGQQ4BhI+1datUx9HLlxNnjSg4E8/8NvK13zCf+DuI2MkWZ/cXpKv4DjubOv+/UnjHvfq5w77++CX3fvkDUad2nXx5//7HYoVKSYE9tzte3CPiJEspq3qXeVkvbaqdaZ19q4Y4FjZOy9d0bpNexnT2rhJUxw+d1GSB8YkxHeVpdfZFndKXJW46pNiGjBA0uoTkyCTRP754d/wx9/+Vsa8cgA/x2Hly5VXxrZxXKge9vcBxwMWKVAQJYsXR+5PP8Pf/vwBfv/f/43WbTvgkadfcnZVOxLbdiTqT/VndsMA34oePHcZ1avVkAlqzK7ybRGz5tnN1qxmjxLXNJCWtFS2ZlyzT6BnIPOKisPRC5fRs28/fPbxJzLJgxM+bju9kFmrXB1CD/v74OqjZzLhi5MI//L738uEJs6ydgoIlaEraWmzem/2abNal1qX74YBE0nlUCMOyXi3e9S39vaTElclrtoYbYABjhFjcONT+tFLV9C+Qyd07tYTHuFRcp7jpPSwrw/4+o7jZjkjmSsEcKk1LlXDsbM6Fk07U3t3pio/+2HMGJOsdZu56laJqw1IS2pAzYwrZzUyM3T43GUd45pB9ZCaunvTPQaBJYnaffwMuPSYMaHhTffp/9IeGJkR4SxvLrXEmflKWNPuU8Wl+lAxoBjIbBhQ4ppBhIlkhkttcI1GrokZmDS7PbMBRPVJXdAigWX2lbNr1Yep82Fq/MYld/jQoA8L6efz1NST3qP1k5UwwKXV+GAsb80SX+3AlpVsyE66KnHNIOJKEHGXHJJXrlHHST7ZCVhqi9anYkAxoBhQDGQHDDAR8dQvRHYzPHf7EX7ZdUDWAteJWhmDbyWuGUhcuUc4M0MK/owBf3YIqGqDYkcxoBhQDNgXA1xNYOv+IyhZrDjatuuECVOmwzcuUfvuDOJPSlwzyPEaaOwbaNS/6l/FgGJAMaAYSDMGok3LYHG7as5JeeztK8OR0ixXuUeq3zIrcc0g8DDLyjGQfJIL1rGQqQZwpgoeyev7Za9xrcRqym8FMrGtb9RbO/RM1XYyKA6rD7QdvA0DRl/dpm0HLFixVnbr49vSt92n/7cftpS4ZkDA5HhWDvI+evEapsxZiF3HTsv2pd4x9qtobUT29a3xEMIlsXjwgSQtu6twMgC3MiROjMDJcVbW6pHXcrknDjsxvqelbPMyWDblct91Y8UEw0bjUyahpRDIRZ+k7XT5XSZOJZj0NC8nNd8DkrbqTOle7lvPbS65/WlK1+h5+7YL9a/6N6tjgLHVyS8UtWvVxdGL13UFoAzgTJYYUuKaAZXADn/V5u1wLOeIQYO+ReVKlTF1zgLJvOqTXNYK9CR23N96+rzF6NG7H3r17Y+evb/E0JGjcf7OIyGelo0u+XcKZI//D0gANu09hBUbt+KxVyBGjZ2Ae67er8+WT7qfDzwPPf3x0MMPwQnAgdMX8dPUmULWDLJLPZPLtcT8G/7HtwELV67FobNX8CIoAt8OG4Vefb8SO3v37Y9uPXrju1Fj8DwgLHlvdfOyqBuXqLrv5gM/+mnuImzddwRBSXvJi05vKD9ZZ8trIhNw64U7nIOj4GX2wGeUzc7mros3JkyZAbewOCWvlnWuv1NuD+ob9Y0ZBhgDD5y5hKqVq+KxV4AkmZLjktl1ei79+m4lrukMPGaAXEIiUKtmbSxdtwn823/qvJBYEhNm2bQBpF8DSKuvSQxZZ6zPjp26Yu2W7eBOTV8OGATHcuVx7ekLyTIyK2kcXCKLwdDIWHJNX49Ik828hufjAfzw0yT06NMPLsHhmLtkpaxAQZLM6417eX00gHE/T8MP4ycKnk5dv4sla34RHHEJF15rlEf8MfPpn7Ski3Gecix9wSXazt1+CL4icw4Mw/Wnzsj7eS6MHjcRi1atxdylqzBr0TIh1ySQJIuWZUUCWLR6Pb78ehBi+cC2aTsOnrkk1xn+4D38Tp0MuyiLPiERpY6GnszY0iafGKBZ85Y4e+uB/I92GWXzWvrJPzYevfv1l/KZAbe0T39nnXamdaV1lVEY4EP27mOnMXz0jzqZOp35Ukp1rsQ1nSuCHe+Zm/fhWN4Rd128pLN1CYlB9WrVsfXAUXnFnFJl6fnMF7xJXPkqvX79hli0ap0QxygAYQAqVayE+cvXwDMyBjsPn8TeE2cxefZ8IVC7jp7GtyO+x/jJ0/HA3Q/+8aahBccv35QAuXTteoz6cQIGDB4Kz8hY8Houqh+YADz2DsCU2fMwZPho7D91AQ9cvdCwYWMhzxfvP8E9N185LwQvNhGrNm3DoO9GYs6SFXAOiUBQPHD8yk0cOndFCO7g70Zi36kLpkxC0rJsJIwkgsywjp8yQ4j0xftP4VC6DB55+IudcUkEm7tV8XW8V3QC1m7bhcHDRmHa3EV4GRwOJ98gtO/YBeXLlceR81dw8uptIcB3nL2w5/hZbN53WMpgx3DnpQe+H/8zJk6bhWd+IfCLNfmW1w3//keMHDMep2/cF7027j6IwvkLSGbbLTQKzsHhkvX+ZugIrN22W4grySqzz40bN4VLSGRyRljbUeZrR1onWieZFQN80GcstdXwq8xqZ1bSS4lrOhNXZpb2nDiDShUr47l/mGSZSH7q1W2AZes2KXFN5/pIa2M1iGuDBo0k+0jCyowoCVqRgoWw98Q53HP1QYmixVG3Tj3MmDVHMoDVqlbH7HnzJSPIjCazg0cvXROCN2HqNIydOAXFixQVEnv7pScqV6wshM8rMhotW7VB1x69MW3WbFR0rISJM+ai1RdtUL16TVy6fR9rtu5CkybNJRP5489TUK9eA6xcsw7tOnRCr75fIjwBMvSgYL78kj0dN2kKSpcshVPX7yRvhMGMpZN/OGrXqiMEl5nTyw+dUKp4Ccmanrx2HUcuXMXBs5dx/ZmL4HbmgiWix4bNW9GhUxf0+WoAHvsEol37jvKgtv/EaXTp1hPzl62WV295Pvscfb76GhOnzYBDqTJo0eILsalxk6b4+tvvJJO8df9RsX35ug2YPm8RqlSqihtPXmDTnv0oWrAwBg0dgcfeQSK3c9cemL9wscz85SQKEmqX0GjUr98IOw6fEMKb1vrW+5VgKQZyJgaMYUha/xlf/0pc05kokbgePn8VFcpXwBPvIHmK424/fNW8dusuJa7pXB9pDUJCXBOA5i2+QOkSJdGiRSs0adocVSpVkQxhUEIirj91kfX/jly8JpnY2rXrYuWm7UKsnEOipO65PeyAQUMwbPRYJAIyc5WEduC330lmvk7tunjo4Y+12/agVs06MukoAcCaLTuxcdcejJ80TbKPTIWu+GUrOnTsihvPXAVnHGvLPyf/MHlgOn7lFn78eSqat/xCdOBQgzZt24PE03ilzklhZ27dR/my5WRsLQn5tScvUaRQYdSt2wCtvmiLFi1bCymct3QVYgB0695LCORLLx+4hsXi0NlLsu3q3KUr0a1XH8nadu3eC4tXbxDiWrpkaRn/ynsbNWoCLjfDv51HT6F69Rrwi0vEyWu3cfzyDSHUlx48E4K988hpkVurVh1cffISu4+dQY1qNWQCBcnq+p17wf+5hUWLPe3ad8KkGXPE1rTWt96f8Z2W1oHWgWIgZ2NAiWs6EyWOh+RY1oqOFWWrV3bU91y8hWDwNWiQbv2apcYiGhlXEq/vRv2A8zdv4uil60LyOGaT4y0v3X8GZlif+obgkXcQShUviQ6duqJXvwHo8+UANG3WEtsPHgUJ1pK1G4VgkSiO+WkyBn47DHedvVCnTj0ZUvDD+J/Rs3c/cDgCX2ExE8o/vtL/Zsgw+b5y4zYw+7j35Dkpl0HeJ9600kGLll9g+YYtGD95BoYM/14IIElq9179MHXOwmTiSr33nTyHyhUr4bF3oJw3iCO3KHYLjxAizOELziHRMpns1gtXkJjWqFFbiDyznCTFzJR26tpd7OJkLhJXZqKbNWspdc0MNUn60rUbhbTvOXYWNWvUEnJ++6UH+g8cjA6duslnsSJFse/UeRlXzDUVL9x7IsMxihUugn79B6JHH9OEsY6du4l+JLJde/TCyDHjTLZZTvJK5/avHW7O7nC1/rX+FQNpx4AS13TuuIzJJgOHDJPJJSdPn0H3Xn3QrkNn+MYmypJDCuy0Azu9fGgQVw4VmL98tUxAYlbdWMaKSzZdfuAkBJJjWZ8HhKO8QznwFbhHWBie+YViw859uPfSDX2/+ho/TJgEZlI5fvSrgYPx9eChSRnXerJyAFcv4KQkEldOdtp55CR2Hj4u2V3O7ucfM66dOncTUseVKziWmvI4w59kb+/J8xg/aTqGjhgtZI66duvZR8alGhlXjuc6ceW2PGA98vRPJq4c4/rA3VfKYaaUOgiJjkyQITCuYTFwCQjAwhVrUaJoMTzyCsDsxcsl40q7jIwriWvz5q3AJatIXFu3aY9Fq9aL7RzPyyEKXFmhdZt2Qso9AgOlbZDQGsS1etXquOnkKvbyeie/ELgEheLKw+dYt2033CLiZNJXm3YdZJWFcJ2glaUeCtOrDWs5WSfeal1pXREDSlzTmbjS6VwW6HlAKL4bOVpet3LG9T0XL11RIAPqIq2B0CCulStVweSZc01ZPTM7SAAv3n2C0iVK4fYLD8lwkmDyVfvxs+dktYAa1WrinosHDp29LJn39Tt2Y9WmrcibKzf6f/MtmHV0LFseN5+7456Lu2RBJ8+ajx0HDqG8Q3ls2XcYE6fPRrUq1fD0pTNWbtwqk7X84xLw5YBvJJN77OQpycg2a94KAdFxMjb0q68HydAF6ti6LcndLPktGI3nJLAgIdxcpYCZ3UsPnuLz//wHQ0Z8jxnzF2LKrPn4ecYczFu6UiZ9MYvMMawXrlyViWB169aHe3C4EFIS3st37slELa6QwMlqtWrUTiauDRo0xpzFK4QQbztwTMg9iWvbdh1BPS9du46J02bj47//A3OWrhSyS59zLDDJK8cPT549D6fOX0CnLt2F8HOYhntEnAxD+GXX/l/VTVrrXu/XTlQxoBhQDKQ/BpS4mpGM9AIgl/nhcj98HcuxgCQOfK1sLImUXnpoOWlvcMygc8bptLkL5dU6Vwcw9yuXaXrg5ivE8olPEALiAbewWPw8fQ669uyD3v2+kklOkqVNgIxzJvEaPGwk5ixdgY17DsgQgymz5slQAQ4hOHnlFvr2H4iOnbtj6VrThL4rj56LrJ3HzuD83cdCHKnLi8BwjB4/EZ279RCyevuFG8ISIVne9dv3iD7E4uI1v2D38bPym/rTLg5b+fLrb/Dz9NkyhpXZ0xE/jJPMcJ8vv5bPnn364dthI/HMPxSPvPwlO9qle28hm6eu3UZoItdT9ZLxu8t/2YrVm3fIGG9moWctXAqO76b/OA6WqxyExQNcvWDSzLmyWsPVJy9kKa1e/frL8nGL12yQIRTUj/pzqAVXICCpZoaak9ZGj/9ZMtv01YW7T2TFB66FSzvN60a/px3/6kP1oWJAMZDeGFDimgHE1ahkg/Tw0zinn1kzCJAk8ZW75cMHf3OpKP6f2Vn+JlHjb2OJFZJWnicOuAQVl9eiLL7a5v94n/n9PMeDM/95PTet4Ot2XkOizO985U+Z/M3vlMEHJeMByZDBa3hQjqX+JK5cnqt585byGp73cswos6/8NL5TT+pulEsMUz4fyESHeJNuHN9t6EASaQxL4PX8TvnuSQ91tIX3cqgF5dBXvJd68jreY/xm2byGv+lryqJ8XstxwtyEwFSWtjONL1kzvmi9ab0pBl5hQIlrBhJXBeIrIOZEX5BMWntoSem8uY94H6+zPGf+2/z7u8g0v16+M+sKyLqqXGOYxPBX11i2nyS9fmVXGh7OLG01l2353fAJCTtXYRgyfJTsPMaHgbfqbmmL/lafKQYUA4qBTIcBJa4KykwHSiUYmYfQkwjydT4nlXklbU6QFeqHurqExuBlUKRknbOCzqpj5sG91oXWhWIg82JAiasSVyWuioE3YoDk1chkZqVgzmwshxhkJZ1V18zbWWrdaN0oBjIHBpS4KmnRjl0xoBhQDCgGFAOKAcVAlsCAElcFapYAqj7pZo4nXa0HrQfFgGJAMaAYyEgMKHFV4qrEVTGgGFAMKAYUA4oBxUCWwIASVwVqlgBqRj7dadmaXVAMKAYUA4oBxUDmwIASVyWuSlwVA4oBxYBiQDGgGFAMZAkMKHFVoGYJoOqTbuZ40tV60HpQDCgGFAOKgYzEgBJXJa5KXBUDigHFgGJAMaAYSDUGsv+yex70jdWNZF63Xa5L8qPpO///7te8uv/1e8yJshLXVANVn7jMgaTfFQ+KAcWAYkAxkBkxQDLkE50I76h4vCJGifBO2lTF+LSmu/n15v/3i06AZ0Q8/KMT4Uu5kQlC/Hm9b3QivJJ+m99jfE9JpvF/49PyOv422ZGQbIflNW+61/ifVxR9kSgyKM8/Oh6ekQnwjU6AV2S81QeYgBjAPzIOPkn/944GAmIS5BxlkZxSF78k2+V7DBAQFQ/fyDiwTKN8v5hEKc/yGv7fl/dEJ8DP4h7jXn4qcTVzprlj9PsrkKkv1BeKAcWAYkAxkFUxQILkH50At6AwIVCyOUk0iVgMPMNjERAZA7ewGNmC28diK24SKZI0EjPuyMd7ec4rJAKuIVHwDY+Ge0AI3ENjwHtZFsmaa2AY3CMT5BzPG8Qu+f7oX2/5zetMZbEcE4nj9Ybf+f/AWMCNsiPi5VrqYpnR9IpK0tHsXl7nE52kX0wivEOjRD+/qDh4BobCNSgCnhFxcOZnlMlOKTc6EX60KygMz3xD4BsWBbfQaATGJOKlXzDcgiLgFhQOt4h4kNyGRMXCOSDU5KewKDzzCYJXaCQ8QyKF3AfFAoHhkXgRGC6+8QuPxjOfYHiFRMI1OBJ+kbF47hsI9+AIeIdGwi08/leZXiWuSlyTG4XROPRTOyjFgGJAMaAYyC4YEDIZkwifkDB4hkTAJzxasqIBYZHwDAqDX2iEkMHA6DghWT5hUZIRZEaRBNUnLBIeJLjR8SZyFZ0o5Mw7IlbIsG9ohMghqSP5YwaT5I2ZV7/wGJHhHR4rZJQyPIPDhSx7hEUnZ04DqF9oFFg2s56m61h2FNwj4sD/U5eAiGg4+4fCLyoeJH0kd97hMckZX5YZGBUrdpJUezArzHt5XWgkvCLiEMhscWAo3EKi4U0iGhgKl8Bw+EbGwz0sRmSTiJNEk0i6hcXCOThS7PGPjMUL/xD4RcTALTBcsqMuIdGmDGpwpJB42k7sOIdEwTksFkFxgKt/CNzD6a8IueZFYBgCuLNhUKjoz0yua2gMXMNi8DIkGv5xgFdQmGzbbU7eKVeJqxJXJa6KAcWAYkAxoBjIthgwiKuzX5AQIRJMZvdI5F4EmMisS1A4vILD8MQ3GD4RsfAIjhDS6RoYCg+SqaAIeITHSabQPyoez/1C5HX2S5LI8Cg8YWZR7guHT0SMZFxJ8p56B8GFJDAsUrKzLv4hcAqIEEL4wi/Y9Lo+BpLJfOITDPewWBOJDIuEa1A43EOj4REaDc/gCDz1C5P7SFwp28knEK6h0fAJiYAzySOzyLEQYvjMP0z0J1FkRvllAPWNhVdwOLzCY+DsHyLZZldmoUOjpEy+nncODINvRCxol2SAQyPxPCgSvrGAX0T0/9/OuS0njkNRNP//hTMdAoFAY4yNb7J8A87UOjK0oejLQ9dUipwHCtvIkqxsyPLWlmVzKGVdtZLWnbzFmWxyJxGusz/Jyh11TABXxhwnGAAFsL/tDuoS4xTHrtNxB1y3WSlv+1x2JTcHnWxwi3uRrB3kNTrIyg3q3k5vogxc7cfqaX+spkK3bXOPTAOmAdPA19QAEEVUYDk6gYDTMgvOK+CH64jDiKO5KDp1Aj/SUo+tc6+uZ1QPsiZj2ovuA7K7qpV3oK5qZJ552Q+iIMe0ONPnwBhT4tueWEKvDiJ9WDcSptqTQgEPUNtmTuZ5I5HGBc7q3K6pA0hsT7JKS1m6o0YFiCHsHDBaan8A8EXmFVz3RAnSMkzdc96hkn3VKKhuMieLfSHbqlUo3vlB5oC3H2RJuQm4AvTal9LLqvAaM8A9xd3Vqf/MyWvqJKLvhZNF7mVLDrYJbvPanyUhnlB5+SdKrwBKnbjQ1E+0YMnNRDWoKwxMRw252V7+jVJ1Xu/dVr7DBq4GrgaupgHTgGnANGAaeFoNXMEVUGQREo7jwUlSd+pm4gh+rzpJx/esO6mbuK97AViTZpB3XMF6jAsAwBVT5ZWsql4OvpN14SUfQu4TMAQEcV6BPHKp27xWSIxdI3E9SNb0Mt8XCqW0wbQ+52XdWT5yp1PxTOvTR1zaXeG1L0V3UggN4Fpc4XKZe40AsBCKqX+cSrK2wK3mcAuvEQaAGmcYqAZ4Z4nTRVYaPwBc0wCyOLz0OyqcfOS1JHUrcXeWrD1qbpX2cVq7CbKqAAACuUlEQVTJrBIDWORNcHxpEwBtz5I3veZgWbwWj3lbQFTBNSm173HldcHXoRlkFmeSt4Oskly2rtds7aObTQNX+7F62h+rR4K3Y1/TcbG/u/3dTQNfWwOs8tdYAKvpdeo/5D0XaSVrFiplTqLcCdEApvBxULfNSY/jBL4mpU6tA2VvSaWO6KU+pvNXaaXZ01lSaUZ1kTr937ph0VFayrc4DwuqcDdxSotawRVAI3aw8UeNJ9D2jPhC3WvbYd9J5I8KyoDoW1Jq5naO49mJxh5wjokFLDOvUM6UPOD7pv04ad20ywIrniDwHWjdHeQdp7lhbNx4TU4XsBGVoDzT+JphdQHUZ3Ee3FUWehFR2Bfyug+ZVqIK5HPVrW3P6jpz7YztO+NMn1rRHO38UIcIAE72oZLZLgvtlMEdDueUemNw/xguA1cDVwNX04BpwDRgGjANPLUGcF2nj6ziRoZjwBT5TOBNoTVnMdTpmqtkG/dyWp56burzoe7pCvhpWx9u0PIsdlKnsvSyTABU4FbGfon2g7I8FYD2WKmv++NTDXS/Do+rum1/fBTXtV/hJmVaJmRQw3VQN/vUfbmua3/Hx3hdPt/4Hzc8lL/A530d7N/XRR2Up9+835SZfN8unyvU0q/JOZd+Xc7l3cB1MnjTgbHtH2K1sbCxMA2YBkwDpoFn1gDQxLT/FMwu18tnl+1fvv+k3PR84I88qk6tP+CPaVnaut//ZfsP6puWv6/rfn9a9lHbj8o/OnZTz0/G5KbMfb9/c46B6/2A2f6ffUFtnGycTAOmAdOAaeCJNPBbCPsr1xqe3/r/tPWcN1svaiWPlrlth6kDGwcbB9OAacA0YBowDZgGTAOfTwMvrPyyl42BacA0YBowDZgGTAOmAdPAZ9fAy1lE7GVjYBowDZgGTAOmAdOAacA08Nk18B+ge1Oeh4XpYQAAAABJRU5ErkJggg==;" vertex="1" parent="1">
          <mxGeometry x="223" y="100" width="686" height="188" as="geometry" />
        </mxCell>
        <mxCell id="djFlEE8lnEFdLwc92OZM-2" value="" style="endArrow=classic;html=1;strokeColor=#FF3333;" edge="1" parent="1">
          <mxGeometry width="50" height="50" relative="1" as="geometry">
            <mxPoint x="484" y="230" as="sourcePoint" />
            <mxPoint x="484" y="330" as="targetPoint" />
          </mxGeometry>
        </mxCell>
        <mxCell id="djFlEE8lnEFdLwc92OZM-3" value="" style="endArrow=classic;html=1;dashed=1;" edge="1" parent="1">
          <mxGeometry width="50" height="50" relative="1" as="geometry">
            <mxPoint x="320" y="420" as="sourcePoint" />
            <mxPoint x="820" y="420" as="targetPoint" />
          </mxGeometry>
        </mxCell>
        <mxCell id="djFlEE8lnEFdLwc92OZM-5" value="" style="curved=1;endArrow=none;html=1;strokeColor=#FF3333;endFill=0;" edge="1" parent="1">
          <mxGeometry width="50" height="50" relative="1" as="geometry">
            <mxPoint x="444" y="420" as="sourcePoint" />
            <mxPoint x="524" y="420" as="targetPoint" />
            <Array as="points">
              <mxPoint x="464" y="420" />
              <mxPoint x="484" y="330" />
              <mxPoint x="504" y="420" />
            </Array>
          </mxGeometry>
        </mxCell>
        <mxCell id="djFlEE8lnEFdLwc92OZM-6" value="" style="curved=1;endArrow=none;html=1;endFill=0;strokeColor=#3333FF;" edge="1" parent="1">
          <mxGeometry width="50" height="50" relative="1" as="geometry">
            <mxPoint x="610" y="420" as="sourcePoint" />
            <mxPoint x="710" y="420" as="targetPoint" />
            <Array as="points">
              <mxPoint x="630" y="420" />
              <mxPoint x="660" y="330" />
              <mxPoint x="690" y="420" />
            </Array>
          </mxGeometry>
        </mxCell>
        <mxCell id="djFlEE8lnEFdLwc92OZM-7" value="" style="shape=partialRectangle;whiteSpace=wrap;html=1;top=0;bottom=0;fillColor=none;strokeColor=#00994D;" vertex="1" parent="1">
          <mxGeometry x="470" y="414" width="180" height="36" as="geometry" />
        </mxCell>
        <mxCell id="djFlEE8lnEFdLwc92OZM-8" value="" style="endArrow=classic;html=1;dashed=1;" edge="1" parent="1">
          <mxGeometry width="50" height="50" relative="1" as="geometry">
            <mxPoint x="520" y="380" as="sourcePoint" />
            <mxPoint x="620" y="380" as="targetPoint" />
          </mxGeometry>
        </mxCell>
        <mxCell id="djFlEE8lnEFdLwc92OZM-9" value="`w_k`" style="text;html=1;strokeColor=none;fillColor=none;align=center;verticalAlign=middle;whiteSpace=wrap;rounded=0;" vertex="1" parent="1">
          <mxGeometry x="546" y="360" width="40" height="20" as="geometry" />
        </mxCell>
        <mxCell id="djFlEE8lnEFdLwc92OZM-10" value="" style="endArrow=classic;html=1;dashed=1;exitX=0;exitY=0.75;exitDx=0;exitDy=0;entryX=1;entryY=0.75;entryDx=0;entryDy=0;strokeColor=#00994D;" edge="1" parent="1" source="djFlEE8lnEFdLwc92OZM-7" target="djFlEE8lnEFdLwc92OZM-7">
          <mxGeometry width="50" height="50" relative="1" as="geometry">
            <mxPoint x="516" y="440" as="sourcePoint" />
            <mxPoint x="616" y="440" as="targetPoint" />
          </mxGeometry>
        </mxCell>
        <mxCell id="djFlEE8lnEFdLwc92OZM-11" value="`f(X_k)`" style="text;html=1;strokeColor=none;fillColor=none;align=center;verticalAlign=middle;whiteSpace=wrap;rounded=0;" vertex="1" parent="1">
          <mxGeometry x="546" y="460" width="40" height="20" as="geometry" />
        </mxCell>
        <mxCell id="djFlEE8lnEFdLwc92OZM-12" value="`X_{t,k}`" style="text;html=1;strokeColor=none;fillColor=none;align=center;verticalAlign=middle;whiteSpace=wrap;rounded=0;" vertex="1" parent="1">
          <mxGeometry x="490" y="350" width="40" height="20" as="geometry" />
        </mxCell>
        <mxCell id="djFlEE8lnEFdLwc92OZM-13" value="`X_{t,k+1}`" style="text;html=1;strokeColor=none;fillColor=none;align=center;verticalAlign=middle;whiteSpace=wrap;rounded=0;" vertex="1" parent="1">
          <mxGeometry x="670" y="350" width="40" height="20" as="geometry" />
        </mxCell>
        <mxCell id="djFlEE8lnEFdLwc92OZM-14" value="" style="shape=image;verticalLabelPosition=bottom;labelBackgroundColor=#ffffff;verticalAlign=top;aspect=fixed;imageAspect=0;image=data:image/png,iVBORw0KGgoAAAANSUhEUgAAAGcAAABDCAYAAACBfBvZAAANpElEQVR4Xu1dCVRV1Rr+zh2493IZFAVFJocSEBARNbXJfD1Lc3qCUqJFaaaZQ+rTSs0cnvYanFqlZaKIWZkDBGWt7FWWpeAAhIGiKCA4Mwjcicu9b/0bL5kK3HvPOT7rnc06i7Xg7H32/33//+9/7332f7gyvcWKP1FxVXM4cOwc3tj6AxRyGSxWK6bH9sf9PQKgN/6pRGkRdc4ZcjiOg1wOcLIW2xf8BlcZ8MuJy1iR9H0jOS/G3YsHwttDbxH8cc03aAUsFqC+XhylcIgcmZyDRtnQ38pqE/S6WljJ8LjbB4pGxeFQ/gWs3b4fcrkMVqsVk4b3Qb8IPxhM4oB0S+msgEwuh7u7B9w1HMwADEaw/ghV7CZHreZgNgP79u7FN+lpKD5dCINOByupzm0kh6zWaDKjqsbQiIGHVgW1SikoMC0CzMhRwM3DHcFhERgyKgY9o7vDZAFMJqsgkNhFjpuaw8lTZ7D8lZeRl52Fjh2DEBgUBK1WC5mMtLdFUQS8wQoZx0GhkAOgB3Mw11tgISURBBL7uspx5M7qUVVZicLCQly4cBGDho/Ei68ugpubGnq9FXQPn9IsOSS6u5pDVtavmDXxGbRy02LQ4MHw9PRkWtoAyP93kcvlDItzZWX4PCUVAXfdjbfe/wBtvNvAyDNAaZYclQuHC+cvYGJsDLy9WmHI0KEwm83sksofEXBxcUFdXR22bUlG57AIrN6YCIuVg4VHMNwkOZyMg8YFWDBrLo789D3GJyQwM6ZLKrdGQKlUora2Fps+3Ig5S1cgNm4UagzO+/wmyVGpOBQWFGHS6BEYMuRR+AcEwmQySby0gIBao8ZPP+zD5apqbNyxC3KF0ulQu0lyPNQcNicmI/m9NRj/5JNssidkmPhXZZnGIAoSdu7YhZWbtiKyZxj0TlrPLcmhcNVNBSx+5VXkHtyPUWPGQK/X/1XxFFQuwo4i2M2JiZi+cAlGjhrmtGtrkhy1Cpg/czZKTx7HY8OGSeQ4QCEFB8lJSRg3ZTriE+JRK7TlEDkLZs7GWYkcB2hpuJUCg4+2JCN+yjSJHIfRE7mCRI7IAPNpXiKHD3oi15XIERlgPs1L5PBBT+S6EjkiA8yneYkcPuiJXFciR2SA+TQvkcMHPZHrSuSIDDCf5iVy+KAncl2JHJEB5tO8RA4f9ESuK5EjMsB8mpfI4YOeyHUlckQGmE/zEjl80BO5rkSOyADzaV4ihw96IteVyBEZYD7NS+TwQU/kuhI5IgPMp3mJHD7oiVxXIkdkgPk0L5HDBz2R60rkiAwwn+YlcvigJ3LdO5ocetOeruvLn/WI4vVy2HsE5o4jh449KBQKdvyBDlnRRYSQcPR3tVrNuKIji3fy6biGHAty1mcig44SkhwkF4FO/7fJ0BRZt4Wc+TNmo/RU80dAqLN05IHIKCkpwenCQly5fBk6nZ6RQP8nYjxbeSIwMBCdOneGu7v7HUcS9ZNAJSIuXryI4qIiXLp0CTqdDvX1FkaYq6sG3t4+CAwKhI+PDyOMyLuRJBs5Yye/gHFPjxP+CIgrHQGZPQ+nf8vG8JH/uOX5HDlZCschPy8PmRmZqKisZAJQ4gSNWsMEslgtMBmNqK6pQU11NSMyLDwc0b2iodFo7oijjNRPugpPFeLwoUM4f/48sxzqn1qjYSQQaQa9nuFgrq9H+3bt0at3NFO2G8/KEjlJmzZh4otzMSZ+jLDkkPvxVHNY+eYq7E3Zgcfj42/SEOqAXqfH3r3f4GTBSfj6+qK9ry9UKjU7f0/aRD8c/Vwbf8x1Zly5cgXFxUVwc3PDoEcfYdZkMPye8EHksfqm5kkOev73332HvLx8tPFqgw5+vtBoXBlhNxYigqyprKwM5eXl6NYtFAMeeggqlYphZHPrW7ck47VV72LA3+4TnhxKALTvu/1YOH0K4sfFw9XVtXGsIIGqq6uxe+cu1NTUIiQ0hCWMoI43N/Db/DndV3jqFBPusWFDERwc/D8hiMlx9SpSU1JRWVmJ4JAQ5nJJhubkIALoIgzIa7T28sKIkSNYXZLxZEEBfj6QgY27UuHTri3L6OFMafLArlzOgTR9QswItHbXYuDDDzONIW2qqzNhx/bPUFOrQ3h4OOuoI4O8LUgoKi7CudIyxMTGsIwgRqPRGRmcqkNy0PNIDr1Oh27h4Uw2R+Sw3Z+bmws3rRajx4yGu4cHkhI3Ifq+AVjy5nKnz4OSUM0miaC0Kl/v+Rbzp05CbNwYdOrUifnbr778EieOn0BUz56N/thRhGwEFRQUwGgwYGz8WKjUaofAcfSZtvttz05PS0fRmTPoERXFNN6ZcL8hvYwVR48cRXBwV3j7eOPQoSPMagI7BsDopNW0SA4NFVoVh9VvrETye+/giXHxjBzStm5hYUxL6nlk8+A4GRufjhw5jIiICDw0cOBtsR4aH/Lz8/FFWjoiIyOhuc5lO0M4WRAFCjlZWVCqVFj01mo8+tggXlbTIjl0A7k3hQJY9/Ya7NySCLO5Dh6erdDlrrtgrqtzRpY/1CHBGoKEYox/cjxat24tqvXYLGTb1o9YPzp36SJIuhgav/J++w3t/PyR9HkKCBq+edjsyhpFBLkpgdTUPVgwbQoie0RC6+bmlBu4kU1bJHfs2DG4KJXQkGuziJfChazVarWgoqKSWT+F9vbO/JvTRHJvNCafOFGAd7ZsQ49e3Z1ODtHofu3NVEjZo1JTvsDrL89BRPfIa6m8nItCbhSS5hSnThZAqdEidnwCy+EmBGC3AlOlUuLrtDQU5h9jcjgSALTkJsgLHMrIQMILMzBlxlTx3ZqtQ5RuZcnCxfhq53ZERkUJLtS50lJGzsd70kHJEMXIS0Wrfa4Apjw/DTkHf0bXkFDB5Sg4no/QqF5YuWE978yFdrk1tgSjAv45eSpyMg4gpFs3Qfy0jXhyCZUVFbhUXo7NqV+irbcX6uqEscrrtZ3cc525HpPjYlBbUQ7/oCBeAc2NlkSWU1JUBLfWXkjcncryf4qS0uv6B8tkDUHBnGcnIT/nKLoGhwhOztWqKpy/eBEf7EiFf6AvTDwTyd3KBSkUHGpr9JjyRCzMej18/ToIbjnkAeRqDTbuSoNSSfMm55XMbsvRqIC5z0/H0V9+RGhYuODkVJSX40pFJZLS9sCrTStxLEfBwWQ0Y3LcKOivVsEvIEBwcs6WFEPj0Qqbdn/O0muKbjmkhbTWtnzJcqR9shWRUT0FF6r07FkoNa5ITElnKYn5aFxTAze5Z5ULMHX8UzhzPA93BwcLqmTk1k4WnECX0HCsTUoELXjwCWzsshwSVqvmkLYrHcvmzWpcGeDz4OsBpDlCTnYW+g/8O5atehsGEz+hmouqKOr899IVSP04GT2EVjKFAkczMzH6mWcxc95s6G4XOS4uHM6XXULC8MHw8W6LNm3bCmI9tkkhhaAL3lyFUbEjUO1kCqyWQl2bkv3wn58w59kEtmxDiiGEkpEctKeVnZWFlYnJuP/Bfk6vRjs8z6GH0x7Pwjnz8G1aCqJ79xHEJdAchyIcMzhsTk2Hu6c7zCJEajaBKSigtbyJMaNQW1WBzrTSwWMJ6vd2FThVUADPtt7Y8NlOKJQuvF2z3W6NOkHZ0PPzCjAxZgQC/P3h064dL8EohCZgDv7yM2a9tgwJE55CNdvacT7Cscd6yLVt/3gnls2diT59+0KpdOG12tGwh2NE5sEMLFr1DrN+PolXHbYcVoHj4K4C1q1dh3dfX4Y+/fqxLWhnZtm2vZ3DmZkI6d4D7yYng5M7n6zUHlJs99B8h7PWY1rC08g9fBDRvXuzrWhn3JstbeThzAxE9b0XqxMbUhYLEdA4ZDkkHAkmgwWvzJiJvWm70avPPWw71xHXYNthzM3JgUrrhvXbPkVQ5wDea1H2EkQhrquGQ3FRGZ6Li0GdXoewiO4tbrLd2L5t0+3X7Gxo3D3wwac70MG/PQwCzdEcJoc6SMGBUW/Aotlz8E3abrZRRS8+2LK0N6WBJAwRQ7mXc3Oy4e3rhzfWb0BYWFdB3IC95NgcJ7m33Nx8zJrwDGqqyhlBtJ1AnqA5K7JZPW3WkRyeXt54+8NEJgcFMzyz5DeK4RQ5pHn04QnK/71x7RpseX8dFDIOQR07waOVJxRyRcOoce0jByQMCUuklJaUsLdbHnxkMOYuXgx/v/a3nZjrSaQNxdNnSrDspZeQuX8fe6fBt4MfI8lGEP22rZ6zD10YjSgrLUVJcTHueWAA5q9YgY5B/oLLwdXY6WhJGyjlt+7aBxQIfKWCg0YBZOccw9YNG5CVcQCWejNclC7srRU5kWSxwGg0sM0ouVKJrmEReDxhAh6+/x6mYfa82kH30fNqTA17JDd9wIF9kYOD1gWgT/o4Gk5orsmWkrYH2zcnouR0Idu+oM1EIoms3WQ0oOrqVVytqITBYERAly54/OkJGB4XB6WigW6VE89uztq5hUtX2CULhZ/RfftjyNBBjSvGDd/gAEg46ljiJzuw5l9L2Xd1WCHLuYYkbUGHhkciPCqK7TzqamvYIGxPsVjqoVZrMHbic/Dx0t60Yk3vyFRUG7H1/fWsXfqujaOFviqi0bqi/NIVZOz/ESVnTgMWK3u1i3Z7vdv7IjQ8HJ1DQtG7373ofV9/tJYDlG2buPliz15k7v8RKjWhIUz5L490VI1ypyGjAAAAAElFTkSuQmCC;fillOpacity=50;" vertex="1" parent="1">
          <mxGeometry x="607" y="161.84" width="106.37" height="69.16" as="geometry" />
        </mxCell>
        <mxCell id="djFlEE8lnEFdLwc92OZM-15" value="" style="endArrow=classic;html=1;strokeColor=#3333FF;" edge="1" parent="1">
          <mxGeometry width="50" height="50" relative="1" as="geometry">
            <mxPoint x="660" y="230" as="sourcePoint" />
            <mxPoint x="660" y="330" as="targetPoint" />
          </mxGeometry>
        </mxCell>
        <mxCell id="djFlEE8lnEFdLwc92OZM-16" value="`X_{k}`" style="text;html=1;strokeColor=none;fillColor=none;align=center;verticalAlign=middle;whiteSpace=wrap;rounded=0;" vertex="1" parent="1">
          <mxGeometry x="450" y="460" width="40" height="20" as="geometry" />
        </mxCell>
        <mxCell id="djFlEE8lnEFdLwc92OZM-17" value="`X_{k+1}`" style="text;html=1;strokeColor=none;fillColor=none;align=center;verticalAlign=middle;whiteSpace=wrap;rounded=0;" vertex="1" parent="1">
          <mxGeometry x="630" y="460" width="40" height="20" as="geometry" />
        </mxCell>
        <mxCell id="djFlEE8lnEFdLwc92OZM-18" value="" style="endArrow=classic;html=1;dashed=1;" edge="1" parent="1">
          <mxGeometry width="50" height="50" relative="1" as="geometry">
            <mxPoint x="350.0000000000002" y="600" as="sourcePoint" />
            <mxPoint x="850" y="600" as="targetPoint" />
          </mxGeometry>
        </mxCell>
        <mxCell id="djFlEE8lnEFdLwc92OZM-19" value="IMU" style="text;html=1;strokeColor=none;fillColor=none;align=center;verticalAlign=middle;whiteSpace=wrap;rounded=0;" vertex="1" parent="1">
          <mxGeometry x="310" y="610" width="40" height="20" as="geometry" />
        </mxCell>
        <mxCell id="djFlEE8lnEFdLwc92OZM-20" value="GPS" style="text;html=1;strokeColor=none;fillColor=none;align=center;verticalAlign=middle;whiteSpace=wrap;rounded=0;" vertex="1" parent="1">
          <mxGeometry x="310" y="570" width="40" height="20" as="geometry" />
        </mxCell>
        <mxCell id="djFlEE8lnEFdLwc92OZM-24" value="" style="shape=partialRectangle;whiteSpace=wrap;html=1;top=0;bottom=0;fillColor=none;strokeColor=#00994D;" vertex="1" parent="1">
          <mxGeometry x="360" y="564" width="200" height="36" as="geometry" />
        </mxCell>
        <mxCell id="djFlEE8lnEFdLwc92OZM-25" value="" style="endArrow=classic;html=1;dashed=1;exitX=0;exitY=0.75;exitDx=0;exitDy=0;entryX=-0.002;entryY=0.565;entryDx=0;entryDy=0;strokeColor=#00994D;entryPerimeter=0;" edge="1" target="djFlEE8lnEFdLwc92OZM-48" parent="1">
          <mxGeometry width="50" height="50" relative="1" as="geometry">
            <mxPoint x="360" y="584" as="sourcePoint" />
            <mxPoint x="540" y="584" as="targetPoint" />
          </mxGeometry>
        </mxCell>
        <mxCell id="djFlEE8lnEFdLwc92OZM-26" value="" style="endArrow=classic;html=1;dashed=1;exitX=0;exitY=0.75;exitDx=0;exitDy=0;strokeColor=#FF0000;" edge="1" parent="1">
          <mxGeometry width="50" height="50" relative="1" as="geometry">
            <mxPoint x="360" y="614" as="sourcePoint" />
            <mxPoint x="400" y="614" as="targetPoint" />
          </mxGeometry>
        </mxCell>
        <mxCell id="djFlEE8lnEFdLwc92OZM-28" value="" style="endArrow=classic;html=1;dashed=1;exitX=0;exitY=0.75;exitDx=0;exitDy=0;strokeColor=#FF0000;" edge="1" parent="1">
          <mxGeometry width="50" height="50" relative="1" as="geometry">
            <mxPoint x="400" y="614" as="sourcePoint" />
            <mxPoint x="440" y="614" as="targetPoint" />
          </mxGeometry>
        </mxCell>
        <mxCell id="djFlEE8lnEFdLwc92OZM-29" value="" style="shape=partialRectangle;whiteSpace=wrap;html=1;top=0;bottom=0;fillColor=none;strokeColor=#FF0000;" vertex="1" parent="1">
          <mxGeometry x="400" y="594" width="40" height="36" as="geometry" />
        </mxCell>
        <mxCell id="djFlEE8lnEFdLwc92OZM-30" value="" style="endArrow=classic;html=1;dashed=1;exitX=0;exitY=0.75;exitDx=0;exitDy=0;strokeColor=#FF0000;" edge="1" parent="1">
          <mxGeometry width="50" height="50" relative="1" as="geometry">
            <mxPoint x="440" y="614" as="sourcePoint" />
            <mxPoint x="480" y="614" as="targetPoint" />
          </mxGeometry>
        </mxCell>
        <mxCell id="djFlEE8lnEFdLwc92OZM-31" value="" style="shape=partialRectangle;whiteSpace=wrap;html=1;top=0;bottom=0;fillColor=none;strokeColor=#FF0000;" vertex="1" parent="1">
          <mxGeometry x="440" y="594" width="40" height="36" as="geometry" />
        </mxCell>
        <mxCell id="djFlEE8lnEFdLwc92OZM-32" value="" style="endArrow=classic;html=1;dashed=1;exitX=0;exitY=0.75;exitDx=0;exitDy=0;strokeColor=#FF0000;" edge="1" parent="1">
          <mxGeometry width="50" height="50" relative="1" as="geometry">
            <mxPoint x="480" y="614" as="sourcePoint" />
            <mxPoint x="520" y="614" as="targetPoint" />
          </mxGeometry>
        </mxCell>
        <mxCell id="djFlEE8lnEFdLwc92OZM-33" value="" style="shape=partialRectangle;whiteSpace=wrap;html=1;top=0;bottom=0;fillColor=none;strokeColor=#FF0000;" vertex="1" parent="1">
          <mxGeometry x="480" y="594" width="40" height="36" as="geometry" />
        </mxCell>
        <mxCell id="djFlEE8lnEFdLwc92OZM-34" value="" style="endArrow=classic;html=1;dashed=1;exitX=0;exitY=0.75;exitDx=0;exitDy=0;strokeColor=#FF0000;" edge="1" parent="1">
          <mxGeometry width="50" height="50" relative="1" as="geometry">
            <mxPoint x="520" y="614" as="sourcePoint" />
            <mxPoint x="560" y="614" as="targetPoint" />
          </mxGeometry>
        </mxCell>
        <mxCell id="djFlEE8lnEFdLwc92OZM-35" value="" style="shape=partialRectangle;whiteSpace=wrap;html=1;top=0;bottom=0;fillColor=none;strokeColor=#FF0000;" vertex="1" parent="1">
          <mxGeometry x="520" y="594" width="40" height="36" as="geometry" />
        </mxCell>
        <mxCell id="djFlEE8lnEFdLwc92OZM-36" value="" style="endArrow=classic;html=1;dashed=1;exitX=0;exitY=0.75;exitDx=0;exitDy=0;strokeColor=#FF0000;" edge="1" parent="1">
          <mxGeometry width="50" height="50" relative="1" as="geometry">
            <mxPoint x="560" y="614" as="sourcePoint" />
            <mxPoint x="600" y="614" as="targetPoint" />
          </mxGeometry>
        </mxCell>
        <mxCell id="djFlEE8lnEFdLwc92OZM-37" value="" style="shape=partialRectangle;whiteSpace=wrap;html=1;top=0;bottom=0;fillColor=none;strokeColor=#FF0000;" vertex="1" parent="1">
          <mxGeometry x="560" y="594" width="40" height="36" as="geometry" />
        </mxCell>
        <mxCell id="djFlEE8lnEFdLwc92OZM-38" value="" style="endArrow=classic;html=1;dashed=1;exitX=0;exitY=0.75;exitDx=0;exitDy=0;strokeColor=#FF0000;" edge="1" parent="1">
          <mxGeometry width="50" height="50" relative="1" as="geometry">
            <mxPoint x="600" y="614" as="sourcePoint" />
            <mxPoint x="640" y="614" as="targetPoint" />
          </mxGeometry>
        </mxCell>
        <mxCell id="djFlEE8lnEFdLwc92OZM-39" value="" style="shape=partialRectangle;whiteSpace=wrap;html=1;top=0;bottom=0;fillColor=none;strokeColor=#FF0000;" vertex="1" parent="1">
          <mxGeometry x="600" y="594" width="40" height="36" as="geometry" />
        </mxCell>
        <mxCell id="djFlEE8lnEFdLwc92OZM-40" value="" style="endArrow=classic;html=1;dashed=1;exitX=0;exitY=0.75;exitDx=0;exitDy=0;strokeColor=#FF0000;" edge="1" parent="1">
          <mxGeometry width="50" height="50" relative="1" as="geometry">
            <mxPoint x="640" y="614" as="sourcePoint" />
            <mxPoint x="680" y="614" as="targetPoint" />
          </mxGeometry>
        </mxCell>
        <mxCell id="djFlEE8lnEFdLwc92OZM-41" value="" style="shape=partialRectangle;whiteSpace=wrap;html=1;top=0;bottom=0;fillColor=none;strokeColor=#FF0000;" vertex="1" parent="1">
          <mxGeometry x="640" y="594" width="40" height="36" as="geometry" />
        </mxCell>
        <mxCell id="djFlEE8lnEFdLwc92OZM-42" value="" style="endArrow=classic;html=1;dashed=1;exitX=0;exitY=0.75;exitDx=0;exitDy=0;strokeColor=#FF0000;" edge="1" parent="1">
          <mxGeometry width="50" height="50" relative="1" as="geometry">
            <mxPoint x="680" y="614" as="sourcePoint" />
            <mxPoint x="720" y="614" as="targetPoint" />
          </mxGeometry>
        </mxCell>
        <mxCell id="djFlEE8lnEFdLwc92OZM-43" value="" style="shape=partialRectangle;whiteSpace=wrap;html=1;top=0;bottom=0;fillColor=none;strokeColor=#FF0000;" vertex="1" parent="1">
          <mxGeometry x="680" y="594" width="40" height="36" as="geometry" />
        </mxCell>
        <mxCell id="djFlEE8lnEFdLwc92OZM-44" value="" style="endArrow=classic;html=1;dashed=1;exitX=0;exitY=0.75;exitDx=0;exitDy=0;strokeColor=#FF0000;" edge="1" parent="1">
          <mxGeometry width="50" height="50" relative="1" as="geometry">
            <mxPoint x="720" y="614" as="sourcePoint" />
            <mxPoint x="760" y="614" as="targetPoint" />
          </mxGeometry>
        </mxCell>
        <mxCell id="djFlEE8lnEFdLwc92OZM-45" value="" style="shape=partialRectangle;whiteSpace=wrap;html=1;top=0;bottom=0;fillColor=none;strokeColor=#FF0000;" vertex="1" parent="1">
          <mxGeometry x="720" y="594" width="40" height="36" as="geometry" />
        </mxCell>
        <mxCell id="djFlEE8lnEFdLwc92OZM-46" value="" style="endArrow=classic;html=1;dashed=1;exitX=0;exitY=0.75;exitDx=0;exitDy=0;strokeColor=#FF0000;" edge="1" parent="1">
          <mxGeometry width="50" height="50" relative="1" as="geometry">
            <mxPoint x="760" y="614" as="sourcePoint" />
            <mxPoint x="800" y="614" as="targetPoint" />
          </mxGeometry>
        </mxCell>
        <mxCell id="djFlEE8lnEFdLwc92OZM-47" value="" style="shape=partialRectangle;whiteSpace=wrap;html=1;top=0;bottom=0;fillColor=none;strokeColor=#FF0000;" vertex="1" parent="1">
          <mxGeometry x="760" y="594" width="40" height="36" as="geometry" />
        </mxCell>
        <mxCell id="djFlEE8lnEFdLwc92OZM-48" value="" style="shape=partialRectangle;whiteSpace=wrap;html=1;top=0;bottom=0;fillColor=none;strokeColor=#00994D;" vertex="1" parent="1">
          <mxGeometry x="560" y="564" width="200" height="36" as="geometry" />
        </mxCell>
        <mxCell id="djFlEE8lnEFdLwc92OZM-49" value="" style="endArrow=classic;html=1;dashed=1;exitX=0;exitY=0.75;exitDx=0;exitDy=0;entryX=0.998;entryY=0.574;entryDx=0;entryDy=0;strokeColor=#00994D;entryPerimeter=0;" edge="1" parent="1" target="djFlEE8lnEFdLwc92OZM-48">
          <mxGeometry width="50" height="50" relative="1" as="geometry">
            <mxPoint x="560" y="584" as="sourcePoint" />
            <mxPoint x="740" y="584" as="targetPoint" />
          </mxGeometry>
        </mxCell>
        <mxCell id="djFlEE8lnEFdLwc92OZM-50" value="&lt;font style=&quot;font-size: 11px&quot;&gt;predict&lt;/font&gt;" style="text;html=1;strokeColor=none;fillColor=none;align=center;verticalAlign=middle;whiteSpace=wrap;rounded=0;" vertex="1" parent="1">
          <mxGeometry x="400" y="627" width="40" height="20" as="geometry" />
        </mxCell>
        <mxCell id="djFlEE8lnEFdLwc92OZM-51" value="&lt;font style=&quot;font-size: 11px&quot;&gt;update&lt;/font&gt;" style="text;html=1;strokeColor=none;fillColor=none;align=center;verticalAlign=middle;whiteSpace=wrap;rounded=0;" vertex="1" parent="1">
          <mxGeometry x="420" y="560" width="40" height="20" as="geometry" />
        </mxCell>
        <mxCell id="djFlEE8lnEFdLwc92OZM-54" value="" style="edgeStyle=orthogonalEdgeStyle;rounded=0;orthogonalLoop=1;jettySize=auto;html=1;dashed=1;endArrow=classic;endFill=1;" edge="1" parent="1" source="djFlEE8lnEFdLwc92OZM-52" target="djFlEE8lnEFdLwc92OZM-53">
          <mxGeometry relative="1" as="geometry" />
        </mxCell>
        <mxCell id="djFlEE8lnEFdLwc92OZM-52" value="建立系统方程&lt;br&gt;和观测方程" style="rounded=1;whiteSpace=wrap;html=1;strokeColor=#3399FF;" vertex="1" parent="1">
          <mxGeometry x="250" y="827" width="110" height="70" as="geometry" />
        </mxCell>
        <mxCell id="djFlEE8lnEFdLwc92OZM-60" style="edgeStyle=orthogonalEdgeStyle;rounded=0;orthogonalLoop=1;jettySize=auto;html=1;endArrow=classic;endFill=1;strokeColor=#000000;" edge="1" parent="1" source="djFlEE8lnEFdLwc92OZM-53" target="djFlEE8lnEFdLwc92OZM-58">
          <mxGeometry relative="1" as="geometry" />
        </mxCell>
        <mxCell id="djFlEE8lnEFdLwc92OZM-53" value="预测" style="rounded=1;whiteSpace=wrap;html=1;strokeColor=#3399FF;" vertex="1" parent="1">
          <mxGeometry x="470" y="827" width="110" height="70" as="geometry" />
        </mxCell>
        <mxCell id="djFlEE8lnEFdLwc92OZM-57" style="edgeStyle=orthogonalEdgeStyle;rounded=0;orthogonalLoop=1;jettySize=auto;html=1;endArrow=classic;endFill=1;" edge="1" parent="1" source="djFlEE8lnEFdLwc92OZM-56" target="djFlEE8lnEFdLwc92OZM-53">
          <mxGeometry relative="1" as="geometry" />
        </mxCell>
        <mxCell id="djFlEE8lnEFdLwc92OZM-56" value="控制量" style="rounded=1;whiteSpace=wrap;html=1;strokeColor=#3399FF;" vertex="1" parent="1">
          <mxGeometry x="470" y="690" width="110" height="70" as="geometry" />
        </mxCell>
        <mxCell id="djFlEE8lnEFdLwc92OZM-62" style="edgeStyle=orthogonalEdgeStyle;rounded=0;orthogonalLoop=1;jettySize=auto;html=1;endArrow=classic;endFill=1;strokeColor=#000000;" edge="1" parent="1" source="djFlEE8lnEFdLwc92OZM-58">
          <mxGeometry relative="1" as="geometry">
            <mxPoint x="520.0000000000002" y="900" as="targetPoint" />
            <Array as="points">
              <mxPoint x="775" y="960" />
              <mxPoint x="520" y="960" />
            </Array>
          </mxGeometry>
        </mxCell>
        <mxCell id="djFlEE8lnEFdLwc92OZM-63" value="循环" style="edgeLabel;html=1;align=center;verticalAlign=middle;resizable=0;points=[];" vertex="1" connectable="0" parent="djFlEE8lnEFdLwc92OZM-62">
          <mxGeometry x="-0.084" y="3" relative="1" as="geometry">
            <mxPoint x="-5" y="-2" as="offset" />
          </mxGeometry>
        </mxCell>
        <mxCell id="djFlEE8lnEFdLwc92OZM-58" value="预测" style="rounded=1;whiteSpace=wrap;html=1;strokeColor=#3399FF;" vertex="1" parent="1">
          <mxGeometry x="720" y="827" width="110" height="70" as="geometry" />
        </mxCell>
        <mxCell id="djFlEE8lnEFdLwc92OZM-61" style="edgeStyle=orthogonalEdgeStyle;rounded=0;orthogonalLoop=1;jettySize=auto;html=1;endArrow=classic;endFill=1;strokeColor=#000000;" edge="1" parent="1" source="djFlEE8lnEFdLwc92OZM-59" target="djFlEE8lnEFdLwc92OZM-58">
          <mxGeometry relative="1" as="geometry" />
        </mxCell>
        <mxCell id="djFlEE8lnEFdLwc92OZM-59" value="观测量" style="rounded=1;whiteSpace=wrap;html=1;strokeColor=#3399FF;" vertex="1" parent="1">
          <mxGeometry x="720" y="690" width="110" height="70" as="geometry" />
        </mxCell>
      </root>
    </mxGraphModel>
  </diagram>
</mxfile>
